<svg width="17" height="17" viewBox="0 0 17 17" fill="none" xmlns="http://www.w3.org/2000/svg">
<path d="M8.1 14.58C9.8186 14.58 11.4668 13.8973 12.6821 12.6821C13.8973 11.4668 14.58 9.8186 14.58 8.1C14.58 6.3814 13.8973 4.73318 12.6821 3.51795C11.4668 2.30271 9.8186 1.62 8.1 1.62C6.3814 1.62 4.73318 2.30271 3.51795 3.51795C2.30271 4.73318 1.62 6.3814 1.62 8.1C1.62 9.8186 2.30271 11.4668 3.51795 12.6821C4.73318 13.8973 6.3814 14.58 8.1 14.58ZM8.1 0C9.16371 0 10.217 0.209513 11.1997 0.616576C12.1825 1.02364 13.0754 1.62028 13.8276 2.37244C14.5797 3.12459 15.1764 4.01753 15.5834 5.00026C15.9905 5.983 16.2 7.03629 16.2 8.1C16.2 10.2483 15.3466 12.3085 13.8276 13.8276C12.3085 15.3466 10.2483 16.2 8.1 16.2C3.6207 16.2 0 12.555 0 8.1C0 5.95175 0.85339 3.89148 2.37244 2.37244C3.89148 0.85339 5.95175 0 8.1 0ZM8.505 4.05V8.3025L12.15 10.4652L11.5425 11.4615L7.29 8.91V4.05H8.505Z" fill="#979797"/>
</svg>
