<svg width="388" height="263" viewBox="0 0 388 263" fill="none" xmlns="http://www.w3.org/2000/svg">
<path fill-rule="evenodd" clip-rule="evenodd" d="M332.514 83.9557C333.418 84.6309 334.227 85.423 334.922 86.3113L337.99 85.7463L340.031 90.5119L337.5 92.3433C337.664 93.4575 337.677 94.5886 337.541 95.7065L340.106 97.4834L338.181 102.283L335.099 101.786C334.426 102.69 333.635 103.498 332.746 104.189L333.303 107.267L328.542 109.309L326.739 106.756C325.611 106.912 324.466 106.912 323.338 106.756L321.563 109.33L316.801 107.403L317.298 104.319C316.393 103.645 315.583 102.853 314.89 101.963L311.822 102.521L309.781 97.7558L312.305 95.9244C312.155 94.7946 312.155 93.6501 312.305 92.5203L309.733 90.8251L311.658 86.0594L314.74 86.5496C315.415 85.6477 316.206 84.8395 317.093 84.1464L316.536 81.0419L321.297 78.9994L323.127 81.5253C324.254 81.361 325.398 81.3495 326.528 81.4912L328.297 78.9246L333.093 80.8513L332.596 83.9353L332.514 83.9557ZM327.175 89.0959C326.158 88.6875 325.044 88.59 323.972 88.8155C322.901 89.0409 321.92 89.5794 321.154 90.3627C320.388 91.146 319.872 92.139 319.67 93.2161C319.468 94.2933 319.589 95.4062 320.019 96.4141C320.449 97.4221 321.168 98.2799 322.085 98.8791C323.002 99.4782 324.075 99.7918 325.17 99.7802C326.265 99.7685 327.332 99.4322 328.236 98.8138C329.14 98.1953 329.841 97.3225 330.249 96.3056C330.52 95.6302 330.656 94.9079 330.648 94.1799C330.641 93.452 330.49 92.7327 330.204 92.0632C329.919 91.3937 329.504 90.787 328.984 90.2779C328.464 89.7687 327.849 89.3671 327.175 89.0959Z" fill="#EBEBEB"/>
<path fill-rule="evenodd" clip-rule="evenodd" d="M47.7223 104.673C49.3532 105.895 50.8148 107.328 52.069 108.935L57.6197 107.92L61.2861 116.512L56.6878 119.848C56.9805 121.865 57.001 123.912 56.749 125.934L61.3882 129.141L57.9122 137.814L52.3683 136.868C51.1511 138.504 49.7187 139.967 48.1101 141.219L49.1236 146.774L40.5391 150.484L37.2332 145.909C35.218 146.201 33.1731 146.224 31.1519 145.977L27.9412 150.614L19.2751 147.121L20.1662 141.545C18.5353 140.323 17.0737 138.89 15.8195 137.283L10.2757 138.298L6.60922 129.706L11.1804 126.397C10.8888 124.38 10.866 122.334 11.1123 120.311L6.47998 117.125L9.96276 108.458L15.527 109.357C16.7497 107.724 18.1814 106.259 19.7853 104.999L18.7717 99.4236L27.3563 95.7541L30.669 100.329C32.6841 100.037 34.7291 100.014 36.7502 100.261L39.9541 95.6179L48.6202 99.1037L47.7223 104.673ZM38.0767 113.973C36.239 113.233 34.2235 113.056 32.285 113.463C30.3466 113.87 28.5724 114.843 27.1868 116.26C25.8012 117.676 24.8664 119.472 24.5007 121.421C24.135 123.369 24.3549 125.382 25.1325 127.205C25.91 129.028 27.2104 130.58 28.8691 131.663C30.5277 132.746 32.4702 133.313 34.4507 133.292C36.4312 133.27 38.3608 132.661 39.9955 131.542C41.6302 130.422 42.8965 128.843 43.6342 127.003C44.621 124.537 44.59 121.781 43.5481 119.338C42.5062 116.895 40.5384 114.965 38.0767 113.973Z" fill="#EBEBEB"/>
<path fill-rule="evenodd" clip-rule="evenodd" d="M24.9482 61.1825C25.8493 61.8577 26.6568 62.6499 27.3494 63.5381L30.4172 62.9799L32.4579 67.7455L29.9342 69.5769C30.0871 70.7064 30.0871 71.8514 29.9342 72.981L32.4987 74.7579L30.5737 79.5235L27.499 79.0265C26.8221 79.9307 26.0284 80.7412 25.1386 81.4366L25.7032 84.5071L20.9416 86.5495L19.1118 84.0237C17.9964 84.17 16.8668 84.17 15.7514 84.0237L13.976 86.5903L9.21443 84.6636L9.711 81.5796C8.80828 80.9062 8.00057 80.1138 7.30979 79.224L4.23515 79.7822L2.19445 75.0166L4.72491 73.1852C4.56045 72.0686 4.549 70.9348 4.6909 69.8152L2.11963 68.0451L4.04468 63.2454L7.12612 63.7424C7.80067 62.8383 8.59211 62.0279 9.47972 61.3323L8.92193 58.2618L13.6835 56.2194L15.5134 58.752C16.6401 58.5855 17.7841 58.5718 18.9145 58.7112L20.6899 56.1445L25.4515 58.0712L24.9618 61.1553L24.9482 61.1825ZM19.6084 66.3226C18.5917 65.913 17.4765 65.8141 16.4037 66.0385C15.3309 66.2629 14.3486 66.8005 13.581 67.5834C12.8133 68.3663 12.2948 69.3594 12.0908 70.4371C11.8868 71.5149 12.0066 72.6289 12.435 73.6386C12.8634 74.6482 13.5812 75.5081 14.4977 76.1096C15.4142 76.7112 16.4883 77.0273 17.5842 77.0181C18.6802 77.009 19.7488 76.6749 20.6551 76.0581C21.5614 75.4413 22.2647 74.5695 22.6762 73.5528C22.9499 72.8766 23.0876 72.1529 23.0815 71.4233C23.0754 70.6937 22.9256 69.9725 22.6406 69.3009C22.3557 68.6293 21.9412 68.0206 21.4209 67.5095C20.9005 66.9985 20.2846 66.5951 19.6084 66.3226Z" fill="#F0F0F0"/>
<path fill-rule="evenodd" clip-rule="evenodd" d="M87.4272 23.3706C90.0628 24.34 92.5566 25.6589 94.8417 27.292L101.78 23.7654L109.997 33.678L105.236 39.853C106.413 42.4048 107.248 45.1016 107.718 47.8729L115.106 50.2898L113.915 63.1162L106.202 64.1238C105.233 66.7638 103.915 69.2619 102.283 71.5514L105.807 78.4957L95.8961 86.7199L89.7332 81.9542C87.1892 83.1369 84.499 83.9748 81.7337 84.446L79.3189 91.8464L66.5033 90.6481L65.5306 82.9414C62.895 81.972 60.4013 80.6531 58.1161 79.0199L51.1778 82.5397L42.9606 72.6271L47.7222 66.4522C46.5444 63.9003 45.7095 61.2036 45.2394 58.4322L37.8521 56.0154L39.0016 43.1889L46.7155 42.1813C47.6807 39.5404 48.9938 37.0401 50.62 34.7469L47.0964 27.8094L57.0073 19.5853L63.1702 24.3509C65.7199 23.1658 68.4174 22.33 71.1901 21.866L73.6049 14.4656L86.4205 15.6842L87.4272 23.4046V23.3706ZM78.3258 39.4513C75.6063 39.1977 72.8727 39.757 70.4709 41.0584C68.069 42.3598 66.1067 44.3449 64.8321 46.7625C63.5575 49.1802 63.0278 51.9219 63.3102 54.6408C63.5925 57.3597 64.6741 59.9338 66.4183 62.0375C68.1624 64.1411 70.4906 65.6799 73.1085 66.4591C75.7265 67.2384 78.5165 67.2231 81.1258 66.4152C83.735 65.6074 86.0463 64.0432 87.7673 61.9206C89.4883 59.798 90.5418 57.2122 90.7944 54.4904C90.963 52.6834 90.7742 50.8608 90.2387 49.1269C89.7032 47.393 88.8316 45.7816 87.6737 44.385C86.5158 42.9883 85.0942 41.8337 83.4902 40.9872C81.8862 40.1406 80.1313 39.6187 78.3258 39.4513Z" fill="#E0E0E0"/>
<path d="M33.6347 235.585C42.124 230.023 44.2803 219.368 44.1919 209.714C44.1919 208.108 44.396 206.419 43.6545 204.99C42.9131 203.56 41.1377 202.559 39.6616 203.199C38.444 203.73 37.8862 205.105 37.1787 206.236C36.2355 207.748 34.8844 208.964 33.281 209.742C32.2334 210.246 30.9478 210.538 29.9411 209.96C28.5806 209.163 28.4378 207.236 28.4854 205.65C28.5806 202.673 28.6713 199.698 28.7575 196.725C28.8969 195.127 28.7728 193.517 28.3901 191.959C28.1873 191.188 27.803 190.476 27.2693 189.884C26.7355 189.292 26.068 188.836 25.3223 188.555C23.7918 188.092 21.8735 188.923 21.5062 190.475C21.4301 191.135 21.3982 191.799 21.411 192.463C21.4123 192.796 21.3148 193.122 21.1307 193.4C20.9466 193.677 20.6843 193.894 20.377 194.022C20.0427 194.053 19.706 193.998 19.3989 193.862C19.0918 193.726 18.8244 193.514 18.622 193.246C17.0733 191.512 15.8187 189.537 14.908 187.398C13.9987 185.261 12.8387 183.241 11.4524 181.379C9.98312 179.582 7.92202 178.139 5.60924 177.975C3.29645 177.812 0.800009 179.146 0.167395 181.379C-0.465219 183.612 0.800009 185.934 2.20809 187.786C4.29198 190.546 6.76416 192.991 9.54777 195.043C10.0897 195.356 10.5185 195.832 10.7722 196.405C11.0919 197.48 10.0443 198.508 8.97637 198.835C7.75876 199.203 6.45272 199.046 5.1943 199.162C3.93587 199.278 2.5482 199.795 2.04483 200.959C1.3646 202.58 2.68424 204.322 4.01069 205.473C6.68622 207.788 9.73653 209.63 13.0305 210.919C14.2452 211.283 15.3838 211.864 16.3909 212.635C17.3296 213.479 17.8738 214.929 17.2684 216.039C16.663 217.149 15.1665 217.476 13.9216 217.217C12.7213 216.859 11.5539 216.399 10.4321 215.842C8.22812 214.964 5.35755 215.045 3.88825 216.911C3.43454 217.548 3.13663 218.282 3.01848 219.056C2.90033 219.829 2.96525 220.619 3.20802 221.363C3.71609 222.842 4.51653 224.204 5.56162 225.366C8.99178 229.639 13.4908 232.928 18.6016 234.898C23.7102 236.79 28.4786 237.383 33.6415 235.653" fill="#0275A4"/>
<path d="M2.5481 179.276L2.70455 179.432L3.17391 179.861C3.58885 180.242 4.19425 180.801 4.96291 181.543C7.13208 183.634 9.14209 185.885 10.9761 188.276C12.1393 189.78 13.3502 191.489 14.6154 193.341C15.8806 195.193 17.2071 197.194 18.5335 199.339C19.9325 201.572 21.2065 203.881 22.3496 206.256C22.9482 207.488 23.472 208.782 24.0026 210.096C24.5331 211.41 25.0773 212.744 25.6215 214.099C27.707 219.158 29.5034 224.331 31.0021 229.594C32.2082 233.898 33.0031 238.307 33.3761 242.761C33.62 245.764 33.5973 248.783 33.3081 251.782C33.1993 252.837 33.0972 253.661 33.0088 254.219C32.968 254.485 32.9408 254.696 32.9136 254.852C32.909 254.925 32.909 254.997 32.9136 255.07C32.9365 255.001 32.9547 254.931 32.968 254.859C32.968 254.702 33.036 254.491 33.0836 254.226C33.1925 253.674 33.3149 252.864 33.4442 251.795C33.7776 248.791 33.8323 245.762 33.6074 242.747C33.2657 238.275 32.4888 233.847 31.2878 229.526C29.7996 224.246 28.0076 219.056 25.9208 213.983C25.3676 212.622 24.8279 211.289 24.3019 209.987C23.7645 208.673 23.2339 207.373 22.6353 206.127C21.4809 203.745 20.1956 201.429 18.7852 199.189C17.4247 197.045 16.1051 195.057 14.8399 193.205C13.5746 191.353 12.3434 189.651 11.1598 188.146C9.29846 185.76 7.25138 183.524 5.03774 181.461C4.25547 180.732 3.62966 180.181 3.20112 179.82L2.71815 179.405C2.60932 179.316 2.5549 179.269 2.5481 179.276Z" fill="#263238"/>
<path d="M22.5335 206.113C22.6143 205.893 22.6713 205.665 22.7035 205.432C22.7988 204.99 22.9212 204.356 23.0505 203.56C23.3158 201.974 23.615 199.775 23.928 197.351C24.2409 194.927 24.5674 192.735 24.8599 191.156C25.0027 190.373 25.1252 189.733 25.2136 189.29C25.275 189.068 25.3115 188.84 25.3224 188.609C25.2194 188.826 25.144 189.055 25.098 189.29C24.9755 189.719 24.8191 190.352 24.649 191.135C24.3089 192.708 23.9688 194.9 23.6355 197.331C23.3021 199.761 23.0505 201.892 22.8464 203.553C22.7444 204.295 22.6559 204.915 22.5947 205.432C22.5481 205.656 22.5275 205.884 22.5335 206.113Z" fill="#263238"/>
<path d="M1.84766 201.783C2.11779 201.847 2.39336 201.886 2.67073 201.899C3.20131 201.96 3.97678 202.042 4.9223 202.178C6.82014 202.423 9.43223 202.859 12.2892 203.458C15.1462 204.057 17.731 204.731 19.5472 205.255C20.4724 205.514 21.2138 205.745 21.724 205.902C21.9859 206 22.2571 206.071 22.5335 206.113C22.285 205.988 22.0282 205.881 21.7648 205.793C21.2614 205.602 20.5268 205.344 19.6085 205.058C17.7787 204.472 15.2142 203.778 12.3504 203.172C9.90529 202.646 7.43518 202.244 4.94951 201.967C3.99039 201.858 3.21492 201.81 2.68434 201.79C2.40639 201.759 2.12607 201.757 1.84766 201.783Z" fill="#263238"/>
<path d="M31.0227 229.138C31.0831 229.063 31.1334 228.981 31.1724 228.893L31.5465 228.158C31.8662 227.518 32.3083 226.585 32.8389 225.434C33.9001 223.106 35.2605 219.845 36.7094 216.23C38.1583 212.615 39.4984 209.34 40.5051 206.998L41.7091 204.22L42.0356 203.465C42.1037 203.288 42.1377 203.192 42.1241 203.192C42.068 203.269 42.0202 203.351 41.9812 203.437L41.6071 204.173C41.2806 204.813 40.8452 205.745 40.3146 206.896C39.2535 209.224 37.893 212.485 36.4373 216.101C34.9816 219.716 33.6552 222.99 32.6416 225.332C32.1519 226.476 31.7437 227.416 31.4376 228.11L31.1179 228.866C31.0746 228.952 31.0425 229.044 31.0227 229.138Z" fill="#263238"/>
<path d="M3.62988 219.688C3.62988 219.688 3.71831 219.743 3.89517 219.811L4.69104 220.09L7.62963 221.111C10.1057 221.969 13.5136 223.194 17.2753 224.556C21.037 225.918 24.4585 227.109 26.955 227.919C28.2066 228.328 29.2133 228.641 29.9208 228.845L30.7303 229.077C30.9207 229.131 31.0228 229.151 31.0228 229.138C30.9363 229.09 30.8451 229.051 30.7507 229.022L29.9548 228.736L27.023 227.722C24.547 226.864 21.139 225.639 17.3773 224.277C13.6157 222.915 10.1873 221.717 7.69766 220.907C6.44604 220.505 5.43249 220.185 4.73186 219.981L3.91558 219.75C3.82262 219.72 3.72691 219.699 3.62988 219.688Z" fill="#263238"/>
<path d="M309.679 163.747L268.641 163.556C267.466 163.553 266.304 163.318 265.22 162.865C264.137 162.411 263.153 161.748 262.327 160.913C261.5 160.078 260.846 159.088 260.403 157.999C259.96 156.91 259.736 155.745 259.744 154.569L260.179 51.8828C260.185 50.7092 260.422 49.5484 260.877 48.4666C261.332 47.3848 261.995 46.4033 262.829 45.5782C263.663 44.7531 264.651 44.1006 265.737 43.6579C266.823 43.2152 267.985 42.991 269.158 42.9982L310.196 43.182C312.563 43.191 314.83 44.1394 316.499 45.819C318.169 47.4987 319.104 49.7724 319.101 52.1415L318.665 154.835C318.662 156.011 318.426 157.175 317.972 158.26C317.518 159.345 316.855 160.329 316.02 161.157C315.186 161.985 314.196 162.64 313.108 163.084C312.02 163.529 310.854 163.754 309.679 163.747Z" fill="#455A64"/>
<path d="M310.142 46.7565H302.183C301.925 46.7601 301.669 46.8147 301.431 46.9173C301.194 47.0199 300.979 47.1684 300.799 47.3544C300.619 47.5404 300.477 47.7601 300.382 48.001C300.287 48.2418 300.24 48.4991 300.245 48.7581V50.2014C300.25 50.724 300.05 51.2278 299.687 51.6037C299.324 51.9795 298.828 52.1973 298.306 52.2098L282.79 52.1349C282.529 52.1288 282.273 52.0709 282.035 51.9645C281.797 51.8582 281.582 51.7056 281.404 51.5155C281.225 51.3254 281.086 51.1018 280.995 50.8575C280.904 50.6132 280.862 50.3531 280.872 50.0925V48.6355C280.881 48.3751 280.838 48.1155 280.747 47.8716C280.655 47.6277 280.516 47.4044 280.338 47.2145C280.159 47.0246 279.945 46.872 279.708 46.7653C279.47 46.6587 279.214 46.6001 278.953 46.5931H276.151H269.185C268.364 46.5886 267.551 46.746 266.79 47.0563C266.03 47.3666 265.339 47.8237 264.755 48.4015C264.171 48.9794 263.707 49.6666 263.389 50.424C263.071 51.1814 262.904 51.9941 262.9 52.8157L262.471 153.051C262.468 154.711 263.123 156.305 264.292 157.482C265.462 158.659 267.051 159.323 268.709 159.328L309.666 159.519C311.324 159.526 312.917 158.875 314.097 157.709C315.276 156.543 315.945 154.956 315.958 153.296L316.38 53.0608C316.386 52.2363 316.229 51.4187 315.919 50.655C315.608 49.8913 315.15 49.1965 314.57 48.6107C313.991 48.0248 313.301 47.5594 312.541 47.2412C311.781 46.923 310.966 46.7583 310.142 46.7565Z" fill="white"/>
<path d="M309.469 114.96H268.94V117.676H309.469V114.96Z" fill="#455A64"/>
<path d="M308.026 125.642C308.026 125.737 299.374 125.819 288.708 125.819C278.042 125.819 269.383 125.737 269.383 125.642C269.383 125.547 278.035 125.465 288.708 125.465C299.381 125.465 308.026 125.547 308.026 125.642Z" fill="#455A64"/>
<path d="M308.026 61.2986C308.026 61.4007 299.374 61.4756 288.708 61.4756C278.042 61.4756 269.383 61.4007 269.383 61.2986C269.383 61.1965 278.035 61.1216 288.708 61.1216C299.381 61.1216 308.026 61.1829 308.026 61.2986Z" fill="#455A64"/>
<path d="M308.026 130.584C308.026 130.68 299.374 130.761 288.708 130.761C278.042 130.761 269.383 130.68 269.383 130.584C269.383 130.489 278.035 130.407 288.708 130.407C299.381 130.407 308.026 130.482 308.026 130.584Z" fill="#455A64"/>
<path d="M308.026 135.507C308.026 135.602 299.374 135.684 288.708 135.684C278.042 135.684 269.383 135.602 269.383 135.507C269.383 135.412 278.035 135.33 288.708 135.33C299.381 135.33 308.026 135.425 308.026 135.507Z" fill="#455A64"/>
<path d="M308.026 140.463C308.026 140.558 299.374 140.64 288.708 140.64C278.042 140.64 269.383 140.558 269.383 140.463C269.383 140.368 278.035 140.286 288.708 140.286C299.381 140.286 308.026 140.361 308.026 140.463Z" fill="#455A64"/>
<path d="M308.026 145.399C308.026 145.501 299.374 145.576 288.708 145.576C278.042 145.576 269.383 145.501 269.383 145.399C269.383 145.297 278.035 145.222 288.708 145.222C299.381 145.222 308.026 145.304 308.026 145.399Z" fill="#455A64"/>
<path d="M308.577 151.002C308.577 151.097 299.925 151.179 289.259 151.179C278.593 151.179 269.934 151.097 269.934 151.002C269.934 150.907 278.586 150.825 289.259 150.825C299.932 150.825 308.577 150.9 308.577 151.002Z" fill="#455A64"/>
<path d="M310.013 66.9153H269.383V106.259H310.013V66.9153Z" fill="#9DE9FF"/>
<path d="M272.532 102.889L283.776 82.6418L292.966 95.584L298.551 88.7078L306.863 102.889H272.532Z" fill="#0275A4"/>
<path d="M296.884 78.7068C296.884 79.2858 296.713 79.8518 296.391 80.3332C296.07 80.8146 295.613 81.1898 295.079 81.4114C294.544 81.633 293.956 81.691 293.389 81.578C292.821 81.4651 292.3 81.1862 291.891 80.7768C291.482 80.3674 291.203 79.8458 291.091 79.2779C290.978 78.71 291.036 78.1214 291.257 77.5865C291.478 77.0515 291.853 76.5943 292.334 76.2727C292.815 75.951 293.381 75.7793 293.959 75.7793C294.735 75.7811 295.478 76.0901 296.026 76.6387C296.574 77.1873 296.883 77.9309 296.884 78.7068Z" fill="#0275A4"/>
<path d="M306.863 102.998C306.863 102.998 306.863 102.944 306.863 102.835C306.863 102.726 306.863 102.569 306.863 102.379C306.863 101.957 306.863 101.371 306.863 100.609C306.863 99.0495 306.863 96.7892 306.816 93.923C306.816 88.177 306.768 79.9937 306.734 70.1696L306.897 70.333H272.573C272.525 70.3738 272.933 69.9653 272.763 70.1423V78.9929C272.763 81.8863 272.763 84.7185 272.763 87.4689C272.763 92.9835 272.763 98.1917 272.763 102.985L272.593 102.814L297.415 102.903L304.421 102.944H306.278H306.755H306.925H306.775H306.312H304.489L297.524 102.985L272.593 103.073H272.423V102.903C272.423 98.1372 272.423 92.9018 272.423 87.3872C272.423 84.664 272.423 81.8046 272.423 78.9112V70.0606C272.246 70.2308 272.655 69.8156 272.621 69.8632H306.945H307.013V70.1492C306.972 80.0209 306.945 88.2383 306.925 94.0115C306.925 96.8573 306.925 99.104 306.884 100.656C306.884 101.405 306.884 101.984 306.884 102.392C306.884 102.576 306.884 102.719 306.884 102.835C306.885 102.89 306.878 102.945 306.863 102.998Z" fill="#455A64"/>
<path d="M96.4409 8.18117V98.8786C96.4409 103.221 99.9585 106.742 104.298 106.742L241.187 106.742C245.526 106.742 249.044 103.221 249.044 98.8786V8.18117C249.044 3.83836 245.526 0.317825 241.187 0.317825L104.298 0.317825C99.9585 0.317825 96.4409 3.83836 96.4409 8.18117Z" fill="#455A64"/>
<path d="M106.876 3.67441V103.386L234.317 103.386V3.67441L106.876 3.67441Z" fill="white"/>
<path d="M241.371 49.4451C242.178 49.4451 242.967 49.6846 243.638 50.1335C244.31 50.5823 244.833 51.2203 245.142 51.9667C245.451 52.7131 245.531 53.5345 245.374 54.3268C245.216 55.1192 244.828 55.8471 244.257 56.4184C243.686 56.9896 242.959 57.3787 242.167 57.5363C241.375 57.6939 240.555 57.613 239.809 57.3038C239.063 56.9947 238.426 56.4711 237.977 55.7993C237.529 55.1276 237.29 54.3378 237.29 53.5299C237.29 52.4466 237.72 51.4076 238.485 50.6415C239.25 49.8754 240.288 49.4451 241.371 49.4451Z" fill="#263238"/>
<path d="M100.835 38.3342V68.7256C100.835 69.1843 101.207 69.5562 101.665 69.5562H101.692C102.151 69.5562 102.522 69.1843 102.522 68.7256V38.3342C102.522 37.8755 102.151 37.5037 101.692 37.5037H101.665C101.207 37.5037 100.835 37.8755 100.835 38.3342Z" fill="#263238"/>
<path d="M205.536 11.1633H165.008V13.8798H205.536V11.1633Z" fill="#455A64"/>
<path d="M152.744 57.8191H112.216V60.5355H152.744V57.8191Z" fill="#455A64"/>
<path d="M215.406 21.2664C215.406 21.3685 204.128 21.4434 190.238 21.4434C176.348 21.4434 165.035 21.3685 165.035 21.2664C165.035 21.1642 176.314 21.0894 190.238 21.0894C204.162 21.0894 215.406 21.171 215.406 21.2664Z" fill="#455A64"/>
<path d="M215.406 27.1963C215.406 27.2916 204.128 27.3733 190.238 27.3733C176.348 27.3733 165.035 27.2916 165.035 27.1963C165.035 27.101 176.314 27.0193 190.238 27.0193C204.162 27.0193 215.406 27.0942 215.406 27.1963Z" fill="#455A64"/>
<path d="M215.406 33.1194C215.406 33.2147 204.128 33.2964 190.238 33.2964C176.348 33.2964 165.035 33.2147 165.035 33.1194C165.035 33.0241 176.314 32.9424 190.238 32.9424C204.162 32.9424 215.406 33.0241 215.406 33.1194Z" fill="#455A64"/>
<path d="M215.406 39.0422C215.406 39.1444 204.128 39.2193 190.238 39.2193C176.348 39.2193 165.035 39.1444 165.035 39.0422C165.035 38.9401 176.314 38.8652 190.238 38.8652C204.162 38.8652 215.406 38.9469 215.406 39.0422Z" fill="#455A64"/>
<path d="M215.406 44.9585C215.406 45.0538 204.128 45.1355 190.238 45.1355C176.348 45.1355 165.035 45.0538 165.035 44.9585C165.035 44.8632 176.314 44.7815 190.238 44.7815C204.162 44.7815 215.406 44.87 215.406 44.9585Z" fill="#455A64"/>
<path d="M204.353 50.8953C204.353 50.9906 195.544 51.0723 184.68 51.0723C173.817 51.0723 165.008 50.9906 165.008 50.8953C165.008 50.8 173.81 50.7183 184.68 50.7183C195.55 50.7183 204.353 50.8 204.353 50.8953Z" fill="#455A64"/>
<path d="M178.776 68.501C178.776 68.5963 163.974 68.678 145.717 68.678C127.459 68.678 112.657 68.5963 112.657 68.501C112.657 68.4057 127.459 68.324 145.717 68.324C163.974 68.324 178.776 68.3989 178.776 68.501Z" fill="#455A64"/>
<path d="M178.776 73.4368C178.776 73.5389 163.974 73.6138 145.717 73.6138C127.459 73.6138 112.657 73.5389 112.657 73.4368C112.657 73.3347 127.459 73.2598 145.717 73.2598C163.974 73.2598 178.776 73.3415 178.776 73.4368Z" fill="#455A64"/>
<path d="M178.776 78.3794C178.776 78.4747 163.974 78.5564 145.717 78.5564C127.459 78.5564 112.657 78.4747 112.657 78.3794C112.657 78.2841 127.459 78.2024 145.717 78.2024C163.974 78.2024 178.776 78.2773 178.776 78.3794Z" fill="#455A64"/>
<path d="M178.776 83.3154C178.776 83.4176 163.974 83.4925 145.717 83.4925C127.459 83.4925 112.657 83.4176 112.657 83.3154C112.657 83.2133 127.459 83.1384 145.717 83.1384C163.974 83.1384 178.776 83.2201 178.776 83.3154Z" fill="#455A64"/>
<path d="M178.776 88.2581C178.776 88.3534 163.974 88.4351 145.717 88.4351C127.459 88.4351 112.657 88.3534 112.657 88.2581C112.657 88.1628 127.459 88.0811 145.717 88.0811C163.974 88.0811 178.776 88.1628 178.776 88.2581Z" fill="#455A64"/>
<path d="M153.288 9.76758H112.657V49.1116H153.288V9.76758Z" fill="#9DE9FF"/>
<path d="M115.807 45.7483L127.051 25.501L136.241 38.4364L141.826 31.567L150.138 45.7483H115.807Z" fill="#0275A4"/>
<path d="M140.159 21.5591C140.161 22.1384 139.99 22.7051 139.67 23.1874C139.349 23.6697 138.893 24.046 138.358 24.2686C137.824 24.4912 137.236 24.5502 136.668 24.438C136.1 24.3258 135.578 24.0475 135.168 23.6384C134.759 23.2292 134.479 22.7076 134.366 22.1395C134.253 21.5715 134.31 20.9825 134.531 20.4472C134.753 19.9119 135.127 19.4543 135.609 19.1323C136.09 18.8103 136.656 18.6384 137.234 18.6384C138.009 18.6384 138.752 18.9459 139.3 19.4935C139.849 20.041 140.157 20.7839 140.159 21.5591Z" fill="#0275A4"/>
<path d="M150.138 45.8572C150.138 45.8572 150.138 45.7959 150.138 45.6938C150.138 45.5917 150.138 45.4283 150.138 45.2377C150.138 44.8156 150.138 44.2233 150.138 43.4676C150.138 41.9017 150.138 39.6482 150.097 36.782C150.097 31.036 150.05 22.8527 150.016 13.0286L150.179 13.192H115.855C115.807 13.2328 116.215 12.8311 116.045 13.0082V17.4538C116.045 18.9244 116.045 20.3881 116.045 21.8314V30.3075C116.045 35.8221 116.045 41.0303 116.045 45.8232L115.875 45.653L140.697 45.7347L147.696 45.7823H149.553H150.036H150.206H150.057H149.594H147.771L140.806 45.83L115.875 45.9117H115.705V45.7415C115.705 40.9758 115.705 35.7404 115.705 30.2258C115.705 27.4708 115.705 24.6455 115.705 21.7498V12.8992C115.528 13.0694 115.936 12.6541 115.902 12.695H150.227H150.397V12.8652C150.363 22.7301 150.336 30.9543 150.315 36.7276C150.315 39.5733 150.281 41.82 150.274 43.3723C150.274 44.1143 150.274 44.7339 150.274 45.1083C150.274 45.2921 150.274 45.4351 150.274 45.5508C150.269 45.6665 150.221 45.7761 150.138 45.8572Z" fill="#455A64"/>
<path d="M216.651 63.0339H187.898V90.879H216.651V63.0339Z" fill="#9DE9FF"/>
<path d="M190.129 88.4963L198.081 74.1721L204.591 83.329L208.543 78.4612L214.42 88.4963H190.129Z" fill="#0275A4"/>
<path d="M207.359 71.3808C207.359 71.7848 207.24 72.1796 207.015 72.5155C206.791 72.8514 206.472 73.1132 206.099 73.2678C205.727 73.4223 205.316 73.4628 204.92 73.384C204.525 73.3052 204.161 73.1107 203.876 72.825C203.59 72.5394 203.396 72.1755 203.317 71.7793C203.238 71.3831 203.279 70.9724 203.433 70.5992C203.588 70.226 203.849 69.907 204.185 69.6826C204.52 69.4582 204.915 69.3384 205.319 69.3384C205.86 69.3384 206.379 69.5536 206.761 69.9366C207.144 70.3196 207.359 70.8391 207.359 71.3808Z" fill="#0275A4"/>
<path d="M214.42 88.5712C214.42 88.5712 214.42 88.5303 214.42 88.4622C214.42 88.3942 214.42 88.2716 214.42 88.1355C214.42 87.8359 214.42 87.4547 214.42 86.8828C214.42 85.7799 214.42 84.1595 214.42 82.1171C214.42 78.0322 214.386 72.259 214.359 65.3079L214.475 65.4237H190.184C190.15 65.4237 190.442 65.1649 190.32 65.2943V71.5441C190.32 73.5866 190.32 75.5859 190.32 77.5421C190.32 81.4431 190.32 85.1263 190.32 88.5167L190.204 88.401L207.699 88.5303H212.652H213.971H214.427C214.427 88.5303 214.393 88.5303 214.325 88.5303H213.998H212.706L207.774 88.5644L190.136 88.6256H190.013V88.5031C190.013 85.0991 190.013 81.4295 190.013 77.5284V65.3828C189.891 65.4985 190.184 65.2058 190.156 65.2398H214.447H214.57V65.3556C214.57 72.3407 214.522 78.1548 214.509 82.2396C214.509 84.2821 214.509 85.8479 214.475 86.944C214.475 87.4751 214.475 87.8836 214.475 88.1763C214.475 88.3057 214.475 88.4078 214.475 88.4895C214.475 88.5712 214.427 88.578 214.42 88.5712Z" fill="#455A64"/>
<path d="M237.35 117.499H43.8585C38.3848 117.499 33.9475 121.94 33.9475 127.418V248.759C33.9475 254.237 38.3848 258.678 43.8585 258.678H237.35C242.824 258.678 247.261 254.237 247.261 248.759V127.418C247.261 121.94 242.824 117.499 237.35 117.499Z" fill="#263238"/>
<path d="M25.0298 248.242H256.138V248.48C256.138 251.694 254.862 254.776 252.592 257.049C250.321 259.322 247.241 260.598 244.03 260.598H37.1379C33.9266 260.598 30.8469 259.322 28.5762 257.049C26.3054 254.776 25.0298 251.694 25.0298 248.48V248.242Z" fill="#263238"/>
<path d="M240.942 123.109H39.675V242.332H240.942V123.109Z" fill="#E0E0E0"/>
<path d="M119.575 248.242L122.446 252.81H162.797L165.463 248.242H119.575Z" fill="#455A64"/>
<path d="M231.69 131.054H46.3889V242.291H231.69V131.054Z" fill="#FAFAFA"/>
<path d="M54.3 136.534C54.3014 136.843 54.2111 137.145 54.0408 137.402C53.8705 137.66 53.6276 137.861 53.3431 137.98C53.0586 138.099 52.7452 138.131 52.4426 138.071C52.14 138.012 51.8618 137.864 51.6432 137.646C51.4247 137.428 51.2757 137.151 51.215 136.848C51.1543 136.545 51.1848 136.231 51.3025 135.946C51.4202 135.661 51.6198 135.417 51.8762 135.245C52.1325 135.074 52.4339 134.982 52.7423 134.982C53.1542 134.982 53.5494 135.145 53.8414 135.436C54.1333 135.727 54.2982 136.122 54.3 136.534Z" fill="#455A64"/>
<path d="M60.6399 136.534C60.6412 136.843 60.5508 137.146 60.3802 137.403C60.2095 137.661 59.9663 137.861 59.6814 137.98C59.3965 138.099 59.0827 138.131 58.7799 138.071C58.4771 138.011 58.1989 137.862 57.9807 137.644C57.7624 137.425 57.6139 137.147 57.554 136.844C57.4941 136.541 57.5255 136.227 57.6443 135.941C57.763 135.656 57.9637 135.413 58.221 135.242C58.4782 135.071 58.7803 134.981 59.0889 134.982C59.5003 134.982 59.8947 135.146 60.1856 135.437C60.4764 135.728 60.6399 136.123 60.6399 136.534Z" fill="#455A64"/>
<path d="M66.9863 136.534C66.9876 136.843 66.8974 137.145 66.7271 137.402C66.5567 137.66 66.3139 137.861 66.0294 137.98C65.7449 138.099 65.4315 138.131 65.1289 138.071C64.8262 138.012 64.548 137.864 64.3295 137.646C64.111 137.428 63.9619 137.151 63.9013 136.848C63.8406 136.545 63.8711 136.231 63.9888 135.946C64.1065 135.661 64.3061 135.417 64.5624 135.245C64.8187 135.074 65.1202 134.982 65.4286 134.982C65.6328 134.981 65.8352 135.021 66.0242 135.098C66.2131 135.176 66.3849 135.29 66.5296 135.434C66.6744 135.579 66.7892 135.75 66.8676 135.939C66.946 136.128 66.9863 136.33 66.9863 136.534Z" fill="#455A64"/>
<path d="M231.69 143.343C231.69 143.445 190.196 143.52 139.043 143.52C87.8898 143.52 46.3889 143.445 46.3889 143.343C46.3889 143.24 87.883 143.166 139.043 143.166C190.203 143.166 231.69 143.247 231.69 143.343Z" fill="#455A64"/>
<path d="M247.261 248.337H33.9475V249.018H247.261V248.337Z" fill="#455A64"/>
<path d="M102.107 197.392H61.5786V200.109H102.107V197.392Z" fill="#455A64"/>
<path d="M154.457 159.716H113.929V162.432H154.457V159.716Z" fill="#455A64"/>
<path d="M214.739 169.826C214.739 169.921 192.169 170.003 164.334 170.003C136.499 170.003 113.929 169.921 113.929 169.826C113.929 169.731 136.492 169.642 164.334 169.642C192.176 169.642 214.739 169.724 214.739 169.826Z" fill="#455A64"/>
<path d="M214.739 175.749C214.739 175.844 192.169 175.926 164.334 175.926C136.499 175.926 113.929 175.844 113.929 175.749C113.929 175.654 136.492 175.572 164.334 175.572C192.176 175.572 214.739 175.674 214.739 175.749Z" fill="#455A64"/>
<path d="M214.739 181.672C214.739 181.774 192.169 181.849 164.334 181.849C136.499 181.849 113.929 181.774 113.929 181.672C113.929 181.57 136.492 181.495 164.334 181.495C192.176 181.495 214.739 181.577 214.739 181.672Z" fill="#455A64"/>
<path d="M214.739 187.602C214.739 187.697 192.169 187.779 164.334 187.779C136.499 187.779 113.929 187.697 113.929 187.602C113.929 187.506 136.492 187.418 164.334 187.418C192.176 187.418 214.739 187.5 214.739 187.602Z" fill="#455A64"/>
<path d="M214.739 193.525C214.739 193.62 192.169 193.702 164.334 193.702C136.499 193.702 113.929 193.62 113.929 193.525C113.929 193.43 136.492 193.348 164.334 193.348C192.176 193.348 214.739 193.423 214.739 193.525Z" fill="#455A64"/>
<path d="M153.281 199.448C153.281 199.543 144.472 199.625 133.608 199.625C122.745 199.625 113.929 199.543 113.929 199.448C113.929 199.353 122.772 199.271 133.608 199.271C144.444 199.271 153.281 199.353 153.281 199.448Z" fill="#455A64"/>
<path d="M213.998 210.947C213.998 211.049 199.162 211.124 180.871 211.124C162.579 211.124 147.743 211.049 147.743 210.947C147.743 210.845 162.572 210.77 180.871 210.77C199.169 210.77 213.998 210.851 213.998 210.947Z" fill="#455A64"/>
<path d="M213.998 217.238C213.998 217.333 199.162 217.415 180.871 217.415C162.579 217.415 147.743 217.333 147.743 217.238C147.743 217.142 162.572 217.061 180.871 217.061C199.169 217.061 213.998 217.142 213.998 217.238Z" fill="#455A64"/>
<path d="M213.998 223.528C213.998 223.624 199.162 223.705 180.871 223.705C162.579 223.705 147.743 223.624 147.743 223.528C147.743 223.433 162.572 223.351 180.871 223.351C199.169 223.351 213.998 223.426 213.998 223.528Z" fill="#455A64"/>
<path d="M213.998 229.819C213.998 229.914 199.162 229.996 180.871 229.996C162.579 229.996 147.743 229.914 147.743 229.819C147.743 229.724 162.572 229.642 180.871 229.642C199.169 229.642 213.998 229.717 213.998 229.819Z" fill="#455A64"/>
<path d="M102.209 210.348C102.209 210.443 93.3657 210.525 82.482 210.525C71.5984 210.525 62.7554 210.443 62.7554 210.348C62.7554 210.252 71.5984 210.171 82.482 210.171C93.3657 210.171 102.209 210.246 102.209 210.348Z" fill="#455A64"/>
<path d="M102.209 215.284C102.209 215.386 93.3657 215.461 82.482 215.461C71.5984 215.461 62.7554 215.386 62.7554 215.284C62.7554 215.182 71.5984 215.107 82.482 215.107C93.3657 215.107 102.209 215.161 102.209 215.284Z" fill="#455A64"/>
<path d="M102.209 220.226C102.209 220.322 93.3657 220.403 82.482 220.403C71.5984 220.403 62.7554 220.322 62.7554 220.226C62.7554 220.131 71.5984 220.049 82.482 220.049C93.3657 220.049 102.209 220.131 102.209 220.226Z" fill="#455A64"/>
<path d="M102.209 225.162C102.209 225.264 93.3657 225.339 82.482 225.339C71.5984 225.339 62.7554 225.264 62.7554 225.162C62.7554 225.06 71.5984 224.985 82.482 224.985C93.3657 224.985 102.209 225.067 102.209 225.162Z" fill="#455A64"/>
<path d="M102.209 230.139C102.209 230.234 93.3657 230.316 82.482 230.316C71.5984 230.316 62.7554 230.234 62.7554 230.139C62.7554 230.044 71.5984 229.962 82.482 229.962C93.3657 229.962 102.209 230.01 102.209 230.139Z" fill="#455A64"/>
<path d="M102.209 150.852H61.5786V190.196H102.209V150.852Z" fill="#9DE9FF"/>
<path d="M64.728 186.826L75.9722 166.579L85.1621 179.521L90.7536 172.651L99.0592 186.826H64.728Z" fill="#0275A4"/>
<path d="M89.0802 162.644C89.0802 163.223 88.9087 163.789 88.5873 164.27C88.2659 164.751 87.809 165.127 87.2746 165.348C86.7401 165.57 86.152 165.628 85.5846 165.515C85.0172 165.402 84.496 165.123 84.0869 164.714C83.6779 164.304 83.3993 163.783 83.2864 163.215C83.1736 162.647 83.2315 162.058 83.4529 161.523C83.6743 160.988 84.0492 160.531 84.5302 160.209C85.0112 159.888 85.5767 159.716 86.1552 159.716C86.931 159.716 87.675 160.024 88.2235 160.573C88.772 161.123 89.0802 161.867 89.0802 162.644Z" fill="#0275A4"/>
<path d="M99.0592 186.935C99.0563 186.882 99.0563 186.83 99.0592 186.778C99.0592 186.655 99.0592 186.506 99.0592 186.315C99.0592 185.9 99.0592 185.307 99.0592 184.545C99.0592 182.986 99.0592 180.732 99.0116 177.866C99.0116 172.12 98.964 163.937 98.93 154.106L99.0932 154.276H64.7688C64.7212 154.317 65.1294 153.909 64.9593 154.086V162.936C64.9593 165.823 64.9593 168.655 64.9593 171.412C64.9593 176.92 64.9593 182.128 64.9593 186.921L64.7892 186.758L89.6108 186.839L96.6172 186.887H98.4742H99.1205C99.1205 186.887 99.0728 186.887 98.9708 186.887H98.5082H96.6852L89.7197 186.935L64.7892 187.016H64.626V186.846C64.626 182.08 64.626 176.845 64.626 171.337C64.626 168.58 64.626 165.748 64.626 162.861V154.011L64.8232 153.813H99.1477H99.3177V153.977C99.3177 163.848 99.2497 172.066 99.2293 177.839C99.2293 180.692 99.2293 182.931 99.1885 184.484C99.1885 185.233 99.1885 185.811 99.1885 186.227C99.1885 186.41 99.1885 186.553 99.1885 186.662C99.1885 186.771 99.066 186.941 99.0592 186.935Z" fill="#455A64"/>
<path d="M142.655 207.945H113.902V235.79H142.655V207.945Z" fill="#9DE9FF"/>
<path d="M116.133 233.407L124.085 219.083L130.595 228.239L134.547 223.372L140.431 233.407H116.133Z" fill="#0275A4"/>
<path d="M133.363 216.291C133.363 216.695 133.244 217.09 133.019 217.426C132.795 217.762 132.476 218.024 132.104 218.178C131.731 218.333 131.32 218.373 130.925 218.294C130.529 218.216 130.165 218.021 129.88 217.735C129.594 217.45 129.4 217.086 129.321 216.69C129.242 216.293 129.283 215.883 129.437 215.51C129.592 215.136 129.853 214.817 130.189 214.593C130.525 214.369 130.919 214.249 131.323 214.249C131.864 214.249 132.383 214.464 132.766 214.847C133.148 215.23 133.363 215.75 133.363 216.291Z" fill="#0275A4"/>
<path d="M140.431 233.488C140.428 233.45 140.428 233.411 140.431 233.373C140.431 233.291 140.431 233.182 140.431 233.046C140.431 232.753 140.431 232.365 140.431 231.793C140.431 230.69 140.431 229.07 140.397 227.062C140.397 222.977 140.397 217.203 140.342 210.252L140.458 210.368H116.16C116.16 210.368 116.419 210.109 116.296 210.239V222.493C116.296 226.394 116.296 230.078 116.296 233.475L116.174 233.352L133.744 233.414L138.696 233.448H140.009H138.717H133.792L116.147 233.509H116.031V233.393C116.031 229.989 116.031 226.313 116.031 222.412C116.031 220.465 116.031 218.456 116.031 216.414V210.177C115.908 210.293 116.194 210 116.167 210.035H140.465H140.58V210.15C140.58 217.135 140.533 222.949 140.519 227.041C140.519 229.084 140.519 230.643 140.519 231.739C140.519 232.27 140.519 232.678 140.519 232.971C140.519 233.1 140.519 233.202 140.519 233.284C140.503 233.357 140.473 233.427 140.431 233.488Z" fill="#455A64"/>
<path d="M382.756 248.521L375.954 247.711L374.355 260.469L384.307 261.756L384.457 260.973C385.096 257.474 387.443 243.149 387.021 240.705C386.552 237.982 382.756 248.521 382.756 248.521Z" fill="#0275A4"/>
<path d="M386.43 239.793C386.552 239.793 386.083 244.6 385.382 250.489C384.681 256.378 384.022 261.143 383.899 261.13C383.777 261.116 384.253 256.364 384.947 250.434C385.64 244.504 386.307 239.779 386.43 239.793Z" fill="#263238"/>
<path d="M384.171 247.922C384.103 248.017 383.75 247.881 383.423 247.568C383.096 247.255 382.96 246.887 383.056 246.826C383.151 246.764 383.437 246.962 383.736 247.255C384.035 247.547 384.246 247.84 384.171 247.922Z" fill="#263238"/>
<path d="M384.715 247.159C384.661 247.268 384.26 247.159 383.865 246.86C383.471 246.56 383.253 246.179 383.341 246.111C383.43 246.043 383.763 246.227 384.13 246.506C384.498 246.785 384.777 247.05 384.715 247.159Z" fill="#263238"/>
<path d="M384.314 257.276C384.314 257.331 384.144 257.501 383.804 257.746C383.372 258.04 382.969 258.376 382.6 258.747C382.252 259.116 381.999 259.564 381.865 260.054C381.77 260.435 381.797 260.687 381.729 260.701C381.661 260.714 381.539 260.462 381.559 260.02C381.607 259.439 381.846 258.891 382.239 258.461C382.628 258.054 383.09 257.724 383.6 257.487C384.028 257.297 384.28 257.222 384.314 257.276Z" fill="#263238"/>
<path d="M382.899 247.731C383.008 247.684 383.226 247.936 383.307 248.31C383.389 248.685 383.307 248.991 383.185 248.991C383.062 248.991 382.954 248.719 382.879 248.385C382.804 248.051 382.784 247.779 382.899 247.731Z" fill="#263238"/>
<path d="M382.219 247.84C382.335 247.84 382.396 248.194 382.355 248.63C382.314 249.066 382.171 249.392 382.056 249.365C381.94 249.338 381.872 248.991 381.92 248.582C381.967 248.174 382.097 247.84 382.219 247.84Z" fill="#263238"/>
<path d="M378.607 261.483L340.902 257.657L262.716 259.407L283.504 242.632L335.684 240.126L381.307 246.417L378.607 261.483Z" fill="#263238"/>
<path d="M314.876 251.006C314.876 251.108 307.536 251.183 298.482 251.183C289.429 251.183 282.096 251.108 282.096 251.006C282.096 250.904 289.429 250.829 298.482 250.829C307.536 250.829 314.876 250.911 314.876 251.006Z" fill="#455A64"/>
<path d="M311.23 241.298L313.91 258.175H319.053L315.142 241.114L311.23 241.298Z" fill="black"/>
<path d="M331.133 258.399L330.372 251.591L317.59 252.953L318.576 262.92H319.372C322.923 262.743 337.392 261.776 339.67 260.809C342.242 259.7 331.133 258.399 331.133 258.399Z" fill="#0275A4"/>
<path d="M339.936 260.095C339.936 260.217 335.174 260.85 329.29 261.511C323.406 262.171 318.617 262.607 318.604 262.484C318.59 262.362 323.365 261.735 329.243 261.075C335.12 260.415 339.922 259.999 339.936 260.095Z" fill="#263238"/>
<path d="M331.501 259.768C331.385 259.72 331.44 259.346 331.671 258.958C331.902 258.57 332.222 258.352 332.31 258.427C332.399 258.502 332.263 258.828 332.052 259.182C331.841 259.536 331.623 259.816 331.501 259.768Z" fill="#263238"/>
<path d="M332.378 260.095C332.263 260.095 332.276 259.652 332.481 259.196C332.685 258.74 332.984 258.454 333.086 258.515C333.188 258.577 333.086 258.944 332.882 259.366C332.678 259.788 332.494 260.156 332.378 260.095Z" fill="#263238"/>
<path d="M322.44 262.028C322.399 262.069 322.182 261.912 321.869 261.64C321.484 261.287 321.067 260.97 320.624 260.694C320.185 260.438 319.69 260.296 319.182 260.279C318.794 260.279 318.549 260.353 318.502 260.279C318.454 260.204 318.685 260.04 319.134 259.959C319.719 259.876 320.314 259.996 320.821 260.299C321.305 260.59 321.729 260.968 322.073 261.416C322.359 261.763 322.488 261.987 322.44 262.028Z" fill="#263238"/>
<path d="M331.406 258.481C331.481 258.577 331.283 258.842 330.936 259.012C330.589 259.182 330.256 259.169 330.256 259.053C330.256 258.937 330.467 258.767 330.773 258.617C331.079 258.468 331.338 258.379 331.406 258.481Z" fill="#263238"/>
<path d="M331.134 257.841C331.134 257.964 330.828 258.1 330.399 258.154C329.971 258.209 329.617 258.154 329.61 258.032C329.603 257.909 329.936 257.773 330.345 257.719C330.753 257.664 331.107 257.725 331.134 257.841Z" fill="#263238"/>
<path d="M256.349 180.522L267.233 180.324C267.382 179.065 267.593 174.156 267.593 174.156C267.593 174.156 272.151 173.727 272.484 169.22C272.818 164.713 272.675 154.283 272.675 154.283C270.177 153.021 267.388 152.45 264.596 152.627C261.804 152.804 259.11 153.724 256.791 155.291L256.111 155.767L256.349 180.522Z" fill="#FFBE9D"/>
<path d="M271.171 161.983C271.053 161.857 270.987 161.69 270.987 161.517C270.987 161.344 271.053 161.177 271.171 161.051C271.265 160.951 271.386 160.882 271.519 160.853C271.652 160.823 271.791 160.834 271.917 160.884C272.044 160.934 272.153 161.022 272.229 161.134C272.306 161.247 272.347 161.381 272.347 161.517C272.347 161.653 272.306 161.787 272.229 161.9C272.153 162.012 272.044 162.1 271.917 162.15C271.791 162.2 271.652 162.211 271.519 162.181C271.386 162.152 271.265 162.083 271.171 161.983Z" fill="#263238"/>
<path d="M272.321 161.016C272.246 161.091 271.824 160.724 271.205 160.683C270.586 160.642 270.11 160.935 270.049 160.853C269.988 160.771 270.097 160.676 270.301 160.54C270.579 160.365 270.905 160.284 271.233 160.308C271.559 160.329 271.869 160.456 272.117 160.669C272.321 160.839 272.369 160.982 272.321 161.016Z" fill="#263238"/>
<path d="M265.138 161.119C265.235 161.234 265.291 161.378 265.298 161.529C265.304 161.68 265.26 161.829 265.173 161.952C265.086 162.075 264.96 162.166 264.816 162.21C264.672 162.254 264.517 162.248 264.376 162.194C264.279 162.157 264.192 162.099 264.121 162.023C264.05 161.947 263.998 161.855 263.967 161.756C263.937 161.657 263.93 161.552 263.947 161.449C263.963 161.347 264.003 161.249 264.063 161.165C264.123 161.08 264.202 161.01 264.293 160.96C264.384 160.911 264.486 160.882 264.589 160.878C264.693 160.874 264.796 160.893 264.891 160.935C264.986 160.976 265.071 161.039 265.138 161.119Z" fill="#263238"/>
<path d="M265.519 161.146C265.444 161.221 265.022 160.853 264.396 160.812C263.771 160.771 263.308 161.064 263.24 160.983C263.172 160.901 263.288 160.806 263.498 160.669C263.776 160.494 264.102 160.413 264.429 160.438C264.756 160.462 265.066 160.591 265.315 160.806C265.519 160.969 265.58 161.119 265.519 161.146Z" fill="#263238"/>
<path d="M267.722 166.436C268.049 166.328 268.392 166.278 268.736 166.286C268.899 166.286 269.035 166.245 269.049 166.163C269.065 165.999 269.035 165.834 268.961 165.687L268.546 164.393C268.146 163.29 267.859 162.15 267.688 160.989C268.199 162.041 268.601 163.143 268.886 164.278C269.022 164.727 269.144 165.156 269.273 165.578C269.366 165.793 269.383 166.033 269.321 166.259C269.293 166.32 269.251 166.373 269.2 166.416C269.148 166.458 269.087 166.488 269.022 166.504C268.929 166.516 268.835 166.516 268.743 166.504C268.401 166.538 268.056 166.515 267.722 166.436Z" fill="#263238"/>
<path d="M265.662 167.001C265.036 166.572 267.382 168.056 268.655 168.07C268.423 168.384 268.092 168.61 267.715 168.713C267.339 168.815 266.939 168.788 266.58 168.635C265.26 168.056 265.662 167.001 265.662 167.001Z" fill="white"/>
<path d="M267.621 174.088C265.534 173.996 263.521 173.285 261.839 172.046C261.839 172.046 263.029 175.382 267.559 175.252L267.621 174.088Z" fill="#A36957"/>
<path d="M273.001 152.656C273.26 152.648 273.513 152.58 273.742 152.458C273.97 152.336 274.168 152.164 274.319 151.953C274.47 151.743 274.572 151.501 274.615 151.246C274.658 150.99 274.643 150.728 274.569 150.48C274.495 150.232 274.366 150.003 274.19 149.813C274.015 149.622 273.798 149.475 273.557 149.381C273.316 149.288 273.056 149.251 272.798 149.273C272.54 149.296 272.291 149.377 272.069 149.511C272.61 149.066 273.05 148.511 273.362 147.884C273.512 147.568 273.561 147.215 273.504 146.87C273.447 146.526 273.286 146.207 273.042 145.957C272.758 145.762 272.427 145.647 272.083 145.626C271.739 145.604 271.396 145.676 271.09 145.835C270.131 146.25 269.376 147.06 268.369 147.4C267.362 147.741 266.287 147.571 265.233 147.618C264.058 147.641 262.92 148.034 261.982 148.742C261.52 149.099 261.148 149.56 260.896 150.087C260.645 150.615 260.52 151.194 260.533 151.778C259.057 151.601 257.424 151.581 256.261 152.5C255.793 152.917 255.423 153.432 255.177 154.008C254.931 154.585 254.816 155.209 254.839 155.836C254.953 157.087 255.251 158.314 255.723 159.478C255.806 159.819 255.959 160.139 256.172 160.417L256.723 163.658L258.73 163.617L258.601 156.877C258.601 156.877 258.397 154.031 260.846 154.283C263.294 154.535 266.607 157.293 271.362 156.591C272.139 156.55 272.897 156.334 273.579 155.958C273.91 155.75 274.179 155.457 274.358 155.11C274.538 154.763 274.621 154.374 274.6 153.984C274.559 153.598 274.368 153.243 274.07 152.995C273.771 152.747 273.388 152.626 273.001 152.656Z" fill="#263238"/>
<path d="M256.975 159.771C256.873 159.737 253.621 159.314 253.928 163.175C254.234 167.035 258.009 165.435 258.009 165.326C258.009 165.217 256.975 159.771 256.975 159.771Z" fill="#FFBE9D"/>
<path d="M256.73 164.053C256.73 164.053 256.662 164.101 256.553 164.162C256.401 164.242 256.223 164.262 256.057 164.216C255.797 164.078 255.578 163.874 255.423 163.624C255.268 163.374 255.181 163.088 255.172 162.793C255.134 162.465 255.171 162.132 255.281 161.82C255.307 161.696 255.363 161.581 255.443 161.483C255.524 161.386 255.627 161.31 255.744 161.262C255.819 161.236 255.902 161.237 255.976 161.266C256.051 161.294 256.113 161.348 256.152 161.418C256.213 161.52 256.193 161.595 256.213 161.602C256.233 161.609 256.295 161.534 256.247 161.377C256.221 161.282 256.16 161.199 256.077 161.146C256.022 161.11 255.961 161.086 255.897 161.074C255.833 161.062 255.767 161.064 255.703 161.078C255.54 161.122 255.391 161.208 255.272 161.327C255.153 161.447 255.067 161.596 255.023 161.759C254.883 162.104 254.834 162.479 254.88 162.848C254.887 163.191 254.996 163.524 255.192 163.805C255.388 164.086 255.663 164.302 255.982 164.427C256.087 164.45 256.197 164.448 256.302 164.422C256.407 164.396 256.504 164.347 256.587 164.278C256.73 164.142 256.744 164.06 256.73 164.053Z" fill="#A36957"/>
<path d="M247.52 247.84C249.56 250.883 261.934 269.524 276.708 255.969C295.53 238.717 310.414 223.603 310.414 223.603L316.005 257.746L333.528 256.793C333.528 256.793 326.726 205.957 322.386 201.334C317.563 196.174 313.128 196.609 275.253 226.524L247.52 247.84Z" fill="#455A64"/>
<path d="M310.196 189.944L326.563 177.989L327.365 179.276L311.108 191.374L310.196 189.944Z" fill="#263238"/>
<path d="M314.243 189.576C314.243 189.576 316.434 183.858 316.964 182.639C317.495 181.42 318.291 179.296 318.604 179.235C318.917 179.174 320.059 179.371 318.604 183.007C317.148 186.642 320.372 184.423 320.372 184.423L323.522 182.162C323.522 182.162 326.011 189.61 324.596 191.857C323.484 193.535 322.235 195.117 320.862 196.589L314.243 189.576Z" fill="#FFBE9D"/>
<path d="M314.427 188.909C314.101 188.167 293.286 206.563 289.143 207.189L277.008 191.374C277.008 191.374 274.491 187.371 269.083 180.522C265.587 176.103 255.955 177.022 253.438 182.408C249.139 191.558 249.084 201.729 246.792 221.52L245.792 234.905C245.576 237.753 245.62 240.615 245.921 243.456C246.288 246.771 247.037 250.264 248.574 249.767L276.334 226.803L277.225 216.373C283.062 222.296 284.878 223.535 287.912 223.059C295.551 221.874 322.291 197.808 322.291 197.808C322.291 197.808 314.747 189.658 314.427 188.909Z" fill="#0275A4"/>
<path d="M318.706 201.15C318.164 200.824 317.664 200.433 317.216 199.986C316.079 198.969 315.013 197.875 314.026 196.711C313.033 195.552 312.124 194.323 311.305 193.035C310.941 192.516 310.633 191.959 310.387 191.374C310.799 191.851 311.174 192.358 311.509 192.892C312.189 193.838 313.142 195.132 314.291 196.48C315.441 197.828 316.556 198.985 317.386 199.802C317.857 200.22 318.298 200.67 318.706 201.15Z" fill="#263238"/>
<path d="M287.966 213.459C287.977 212.393 288.105 211.332 288.347 210.293C288.481 209.235 288.727 208.195 289.082 207.189C289.071 208.255 288.944 209.317 288.701 210.355C288.569 211.413 288.322 212.454 287.966 213.459Z" fill="#263238"/>
<path d="M290.619 212.806C290.199 211.94 289.888 211.025 289.694 210.082C289.393 209.171 289.199 208.227 289.116 207.271C289.536 208.136 289.847 209.051 290.041 209.994C290.341 210.906 290.535 211.849 290.619 212.806Z" fill="#263238"/>
<path d="M260.567 194.152C260.816 194.426 261.043 194.72 261.247 195.03L263.056 197.494C264.587 199.571 266.723 202.43 269.11 205.555L275.266 213.548L277.123 215.978C277.375 216.266 277.602 216.573 277.804 216.897C277.531 216.638 277.278 216.358 277.049 216.06C276.579 215.509 275.919 214.698 275.103 213.704C273.477 211.696 271.253 208.905 268.865 205.773C266.478 202.641 264.369 199.755 262.893 197.637C262.152 196.582 261.533 195.717 261.165 195.112C260.94 194.808 260.74 194.487 260.567 194.152Z" fill="#263238"/>
<path d="M257.016 207.604C256.296 207.196 255.639 206.687 255.064 206.093C254.41 205.581 253.831 204.981 253.343 204.309C254.066 204.717 254.726 205.229 255.302 205.828C255.957 206.332 256.535 206.931 257.016 207.604Z" fill="#263238"/>
<path d="M254.635 215.277C253.925 216.748 253.009 218.11 251.914 219.321C252.213 218.557 252.624 217.841 253.132 217.197C253.539 216.488 254.045 215.842 254.635 215.277Z" fill="#263238"/>
<path d="M257.982 225.864C257.907 225.925 257.302 225.312 256.621 224.502C256.163 224.04 255.79 223.501 255.519 222.909C255.594 222.848 256.2 223.46 256.88 224.271C257.339 224.731 257.713 225.271 257.982 225.864Z" fill="#263238"/>
<path d="M251.506 232.651C251.077 233.155 250.561 233.577 249.982 233.897C249.469 234.314 248.886 234.636 248.261 234.85C248.69 234.347 249.207 233.925 249.785 233.604C250.298 233.188 250.881 232.865 251.506 232.651Z" fill="#263238"/>
<path d="M260.56 234.449C259.839 234.134 259.214 233.634 258.75 232.999C258.198 232.43 257.806 231.725 257.614 230.956C257.709 230.909 258.206 231.807 259.016 232.753C259.825 233.7 260.621 234.36 260.56 234.449Z" fill="#263238"/>
<path d="M269.001 228.035C268.504 228.686 267.918 229.264 267.26 229.751C266.674 230.324 266.01 230.81 265.287 231.194C265.784 230.543 266.37 229.966 267.029 229.479C267.613 228.905 268.277 228.418 269.001 228.035Z" fill="#263238"/>
<path d="M251.628 240.419C250.466 239.886 249.543 238.94 249.037 237.764C249.118 237.71 249.628 238.363 250.343 239.085C251.057 239.807 251.69 240.351 251.628 240.419Z" fill="#263238"/>
<path d="M270.505 221.969C269.336 222.639 267.988 222.929 266.648 222.8C267.919 222.46 269.206 222.183 270.505 221.969Z" fill="#263238"/>
<path d="M264.219 214.814C264.079 215.644 263.851 216.456 263.539 217.238C263.317 218.024 263.052 218.796 262.743 219.552H262.668C262.668 219.512 262.709 219.498 262.723 219.498C262.736 219.498 262.723 219.498 262.723 219.573H262.648C262.728 218.756 262.906 217.951 263.179 217.176C263.386 216.335 263.738 215.535 264.219 214.814Z" fill="#263238"/>
<path d="M266.879 210.273C266.141 209.965 265.453 209.547 264.838 209.034C264.164 208.617 263.556 208.101 263.036 207.502C263.76 207.817 264.436 208.235 265.042 208.741C265.728 209.157 266.347 209.673 266.879 210.273Z" fill="#263238"/>
<path d="M261.437 200.265C261.231 200.941 260.889 201.566 260.43 202.103C260.062 202.705 259.576 203.226 259.002 203.635C259.307 203.008 259.691 202.422 260.145 201.892C260.5 201.294 260.935 200.746 261.437 200.265Z" fill="#263238"/>
<path d="M253.152 198.904C253.038 198.139 253.038 197.361 253.152 196.596C253.161 195.824 253.284 195.057 253.519 194.322C253.642 195.084 253.642 195.861 253.519 196.623C253.517 197.398 253.394 198.167 253.152 198.904Z" fill="#263238"/>
<path d="M249.921 213.909C249.736 213.094 249.663 212.258 249.703 211.424C249.634 210.593 249.68 209.757 249.839 208.939C250.102 210.583 250.13 212.257 249.921 213.909Z" fill="#263238"/>
<path d="M249.472 228.301C249.163 227.86 248.956 227.355 248.866 226.824C248.666 226.325 248.573 225.789 248.594 225.251C249.113 226.188 249.414 227.231 249.472 228.301Z" fill="#263238"/>
<path d="M260.927 187.677C260.387 188.297 259.8 188.875 259.172 189.406C258.628 190.024 258.034 190.595 257.397 191.115C257.766 190.363 258.287 189.695 258.927 189.154C259.483 188.527 260.164 188.024 260.927 187.677Z" fill="#263238"/>
<path d="M256.063 186.05C255.916 185.308 255.889 184.547 255.982 183.796C255.954 183.04 256.046 182.284 256.254 181.557C256.397 182.299 256.425 183.059 256.335 183.81C256.359 184.566 256.267 185.322 256.063 186.05Z" fill="#263238"/>
<path d="M267.981 184.43C266.702 183.656 265.467 182.813 264.281 181.904C265.712 182.41 266.987 183.281 267.981 184.43Z" fill="#263238"/>
<path d="M265.389 192.926C265.201 192.147 265.125 191.344 265.165 190.543C265.092 189.745 265.135 188.94 265.294 188.154C265.561 189.729 265.593 191.335 265.389 192.919V192.926Z" fill="#263238"/>
<path d="M272.368 197.896C270.996 197.622 269.634 197.295 268.287 196.916C269.715 196.829 271.136 197.17 272.368 197.896Z" fill="#263238"/>
<path d="M272.845 192.831C272.604 191.505 272.604 190.147 272.845 188.821C273.024 189.472 273.09 190.149 273.042 190.822C273.095 191.498 273.029 192.178 272.845 192.831Z" fill="#263238"/>
<path d="M278.164 201.334C277.947 200.51 277.849 199.66 277.872 198.808C277.778 197.963 277.801 197.108 277.94 196.269C278.245 197.939 278.321 199.643 278.164 201.334Z" fill="#263238"/>
<path d="M274.076 204.207C274.001 204.275 273.45 203.771 272.845 203.09C272.239 202.41 271.804 201.797 271.879 201.729C271.954 201.661 272.505 202.165 273.11 202.852C273.715 203.54 274.151 204.146 274.076 204.207Z" fill="#263238"/>
<path d="M279.246 208.129C278.604 208.347 277.93 208.458 277.253 208.455C276.577 208.573 275.887 208.573 275.212 208.455C275.849 208.229 276.522 208.119 277.198 208.129C277.875 208.002 278.569 208.002 279.246 208.129Z" fill="#263238"/>
<path d="M283.137 210.116C282.849 208.639 282.791 207.125 282.967 205.63C283.263 207.107 283.32 208.621 283.137 210.116Z" fill="#263238"/>
<path d="M286.973 217.571C286.157 217.727 285.319 217.727 284.504 217.571C283.675 217.539 282.859 217.347 282.103 217.006C282.922 217.003 283.739 217.076 284.545 217.224C285.363 217.259 286.177 217.375 286.973 217.571Z" fill="#263238"/>
<path d="M293.571 214.133C293.291 215.679 292.777 217.174 292.048 218.565C292.127 217.786 292.327 217.024 292.639 216.305C292.834 215.537 293.148 214.804 293.571 214.133Z" fill="#263238"/>
<path d="M298.326 208.115C296.912 207.967 295.532 207.582 294.245 206.978C295.657 207.135 297.035 207.519 298.326 208.115Z" fill="#263238"/>
<path d="M302.149 210.396C301.744 210.988 301.246 211.51 300.673 211.941C300.175 212.457 299.599 212.892 298.966 213.228C299.366 212.631 299.865 212.106 300.442 211.676C300.939 211.161 301.516 210.729 302.149 210.396Z" fill="#263238"/>
<path d="M303.68 204.765C303.303 204.092 303.072 203.348 302.999 202.58C302.804 201.828 302.772 201.044 302.904 200.279C303.121 201.01 303.269 201.76 303.346 202.519C303.527 203.255 303.639 204.008 303.68 204.765Z" fill="#263238"/>
<path d="M310.958 203.472C309.559 204.87 308.144 206.252 306.713 207.618C307.794 205.93 309.246 204.512 310.958 203.472Z" fill="#263238"/>
<path d="M311.679 200.864C310.898 200.754 310.139 200.524 309.427 200.183C308.673 199.961 307.957 199.624 307.305 199.183C308.083 199.296 308.84 199.525 309.55 199.863C310.305 200.09 311.023 200.427 311.679 200.864Z" fill="#263238"/>
<path d="M310.985 198.066C310.639 197.501 310.397 196.878 310.271 196.228C310.033 195.608 309.906 194.951 309.897 194.288C310.231 194.855 310.461 195.477 310.577 196.126C310.823 196.745 310.961 197.401 310.985 198.066Z" fill="#263238"/>
<path d="M272.906 217.68C272.824 217.742 272.226 217.068 271.627 216.182C271.196 215.68 270.859 215.103 270.634 214.48C271.146 214.899 271.579 215.407 271.913 215.978C272.338 216.485 272.674 217.061 272.906 217.68Z" fill="#263238"/>
<path d="M324.767 251.979C324.738 251.884 324.72 251.786 324.712 251.687C324.685 251.482 324.644 251.196 324.59 250.829C324.494 250.06 324.345 248.95 324.161 247.534C323.773 244.674 323.222 240.528 322.399 235.429C321.576 230.33 320.481 224.277 318.923 217.633C318.764 216.798 318.492 215.99 318.114 215.229C317.686 214.479 317.134 213.806 316.481 213.241C315.096 212.093 313.324 211.519 311.529 211.635C310.614 211.686 309.719 211.929 308.904 212.349C308.084 212.812 307.304 213.34 306.57 213.929L301.89 217.408C295.591 222.14 289.694 226.776 284.429 231.126C279.164 235.477 274.572 239.548 270.729 243C268.784 244.674 266.709 246.016 264.607 246.233C263.643 246.343 262.667 246.224 261.757 245.886C261 245.601 260.288 245.209 259.641 244.722C258.757 244.049 257.937 243.294 257.192 242.468L256.614 241.829C256.544 241.758 256.48 241.68 256.424 241.597C256.502 241.656 256.573 241.725 256.635 241.801L257.24 242.421C258.006 243.219 258.836 243.952 259.723 244.613C260.366 245.077 261.068 245.453 261.811 245.73C262.7 246.046 263.65 246.151 264.587 246.036C266.627 245.811 268.668 244.484 270.573 242.809C274.389 239.344 278.967 235.225 284.232 230.874C289.497 226.524 295.381 221.854 301.686 217.122L306.366 213.643C307.118 213.044 307.916 212.507 308.754 212.036C309.611 211.594 310.552 211.338 311.516 211.287C313.399 211.168 315.256 211.775 316.706 212.983C317.393 213.574 317.971 214.281 318.413 215.073C318.803 215.859 319.084 216.695 319.25 217.558C320.794 224.223 321.855 230.289 322.651 235.388C323.447 240.487 323.957 244.647 324.304 247.513C324.46 248.936 324.583 250.046 324.671 250.822C324.671 251.19 324.733 251.503 324.753 251.687C324.767 251.784 324.771 251.882 324.767 251.979Z" fill="#263238"/>
<path d="M332.712 251.598C332.491 251.666 332.262 251.703 332.031 251.707C331.589 251.755 330.95 251.809 330.161 251.864C328.576 251.973 326.392 252.088 323.978 252.19L317.794 252.456L315.917 252.524C315.691 252.551 315.463 252.551 315.237 252.524C315.456 252.452 315.685 252.41 315.917 252.401C316.359 252.347 316.998 252.286 317.787 252.218C319.372 252.088 321.556 251.959 323.971 251.85L330.161 251.625L332.038 251.585C332.262 251.561 332.489 251.566 332.712 251.598Z" fill="#263238"/>
<path d="M315.277 218.279C313.729 220.803 311.71 223.005 309.332 224.767C309.264 224.686 310.693 223.358 312.352 221.568C314.012 219.777 315.175 218.218 315.277 218.279Z" fill="#263238"/>
<path d="M315.937 220.349C315.02 221.05 314.051 221.68 313.04 222.235C312.088 222.896 311.088 223.483 310.047 223.991C310.888 223.192 311.83 222.505 312.849 221.949C313.805 221.285 314.843 220.747 315.937 220.349Z" fill="#263238"/>
<path d="M373.247 253.355C373.109 253.37 372.97 253.37 372.832 253.355L371.634 253.287L367.281 252.871L352.935 251.373C347.33 250.788 342.269 250.134 338.589 249.951C336.752 249.855 335.256 249.862 334.229 249.903L333.045 249.951C332.905 249.968 332.763 249.968 332.623 249.951C332.76 249.917 332.898 249.894 333.038 249.883C333.304 249.842 333.718 249.808 334.222 249.76C335.68 249.664 337.142 249.644 338.603 249.699C342.303 249.821 347.371 250.434 352.969 251.019L367.315 252.606L371.662 253.13L372.839 253.287C372.977 253.293 373.114 253.316 373.247 253.355Z" fill="#455A64"/>
<path d="M372.383 260.966C372.288 260.966 372.594 257.562 373.063 253.334C373.532 249.106 374.009 245.736 374.104 245.75C374.199 245.764 373.893 249.154 373.424 253.375C372.954 257.596 372.478 260.973 372.383 260.966Z" fill="#455A64"/>
</svg>
