<svg width="271" height="175" viewBox="0 0 271 175" fill="none" xmlns="http://www.w3.org/2000/svg">
<path fill-rule="evenodd" clip-rule="evenodd" d="M232.803 56.087C233.435 56.5341 234.002 57.0586 234.489 57.6469L236.637 57.2727L238.066 60.4285L236.294 61.6413C236.408 62.3791 236.418 63.1281 236.323 63.8684L238.118 65.045L236.77 68.2234L234.613 67.8943C234.142 68.4926 233.587 69.0279 232.965 69.4857L233.356 71.5235L230.022 72.876L228.76 71.1854C227.97 71.289 227.168 71.289 226.378 71.1854L225.135 72.8895L221.802 71.6137L222.149 69.5714C221.516 69.1255 220.949 68.6008 220.463 68.0115L218.316 68.3812L216.887 65.2254L218.654 64.0126C218.549 63.2645 218.549 62.5066 218.654 61.7585L216.854 60.6359L218.201 57.4801L220.359 57.8047C220.831 57.2074 221.385 56.6722 222.007 56.2132L221.616 54.1575L224.95 52.805L226.231 54.4776C227.02 54.3688 227.821 54.3612 228.612 54.455L229.85 52.7554L233.208 54.0312L232.86 56.0735L232.803 56.087ZM229.065 59.4908C228.353 59.2204 227.573 59.1558 226.823 59.3051C226.072 59.4544 225.386 59.811 224.85 60.3297C224.313 60.8484 223.952 61.506 223.81 62.2192C223.669 62.9325 223.754 63.6695 224.055 64.337C224.356 65.0044 224.859 65.5725 225.501 65.9692C226.143 66.366 226.895 66.5736 227.661 66.5659C228.428 66.5582 229.175 66.3355 229.808 65.926C230.441 65.5165 230.931 64.9385 231.217 64.2651C231.407 63.8178 231.502 63.3395 231.497 62.8575C231.491 62.3754 231.386 61.8991 231.186 61.4558C230.986 61.0124 230.696 60.6107 230.332 60.2735C229.968 59.9364 229.537 59.6704 229.065 59.4908Z" fill="#EBEBEB"/>
<path fill-rule="evenodd" clip-rule="evenodd" d="M33.4118 69.8061C34.5536 70.6153 35.577 71.5643 36.4551 72.6283L40.3412 71.9566L42.9082 77.6461L39.6888 79.8552C39.8937 81.1908 39.9081 82.5464 39.7316 83.8856L42.9797 86.009L40.546 91.7526L36.6646 91.1259C35.8124 92.2089 34.8096 93.178 33.6833 94.0068L34.3929 97.6855L28.3826 100.143L26.0681 97.113C24.6572 97.3062 23.2255 97.3214 21.8104 97.1581L19.5625 100.228L13.4951 97.9155L14.119 94.2232C12.9772 93.414 11.9538 92.465 11.0758 91.4009L7.19433 92.0727L4.62735 86.3832L7.82774 84.1922C7.62363 82.8566 7.60762 81.5013 7.78012 80.1617L4.53687 78.0518L6.97526 72.3127L10.871 72.9078C11.727 71.8266 12.7293 70.8566 13.8523 70.0225L13.1427 66.3302L19.1529 63.9002L21.4723 66.9298C22.8831 66.7366 24.3149 66.7214 25.7299 66.8847L27.9731 63.8101L34.0405 66.1183L33.4118 69.8061ZM26.6586 75.9645C25.372 75.4748 23.9609 75.3574 22.6037 75.627C21.2466 75.8966 20.0044 76.5411 19.0343 77.4791C18.0642 78.4171 17.4097 79.6064 17.1537 80.8965C16.8977 82.1867 17.0516 83.5197 17.596 84.727C18.1404 85.9343 19.0508 86.9617 20.2121 87.6791C21.3734 88.3966 22.7333 88.7719 24.12 88.7576C25.5066 88.7433 26.8576 88.34 28.0021 87.5988C29.1465 86.8575 30.0331 85.8116 30.5496 84.5934C31.2405 82.9605 31.2188 81.1349 30.4893 79.5172C29.7598 77.8994 28.3822 76.6217 26.6586 75.9645Z" fill="#EBEBEB"/>
<path fill-rule="evenodd" clip-rule="evenodd" d="M17.4673 41.0071C18.0982 41.4542 18.6636 41.9787 19.1484 42.5669L21.2963 42.1973L22.7251 45.3531L20.9582 46.5658C21.0652 47.3138 21.0652 48.072 20.9582 48.82L22.7536 49.9966L21.4059 53.1525L19.2532 52.8233C18.7793 53.4221 18.2236 53.9588 17.6006 54.4193L17.9959 56.4525L14.6622 57.805L13.3811 56.1325C12.6002 56.2294 11.8093 56.2294 11.0284 56.1325L9.78539 57.8321L6.45165 56.5562L6.79931 54.514C6.16729 54.068 5.60179 53.5433 5.11816 52.9541L2.96551 53.3238L1.53676 50.1679L3.30841 48.9552C3.19326 48.2158 3.18525 47.465 3.28459 46.7236L1.48438 45.5514L2.83216 42.3731L4.98957 42.7022C5.46183 42.1035 6.01594 41.5669 6.63739 41.1062L6.24686 39.073L9.5806 37.7205L10.8617 39.3976C11.6506 39.2873 12.4515 39.2782 13.243 39.3705L14.486 37.6709L17.8197 38.9468L17.4768 40.989L17.4673 41.0071ZM13.7287 44.4108C13.0169 44.1396 12.2362 44.0741 11.4851 44.2227C10.734 44.3713 10.0462 44.7273 9.50879 45.2457C8.97135 45.7642 8.60829 46.4218 8.46549 47.1354C8.32268 47.8491 8.40655 48.5869 8.70648 49.2555C9.00642 49.924 9.50897 50.4935 10.1506 50.8918C10.7923 51.2901 11.5443 51.4995 12.3116 51.4934C13.0789 51.4873 13.8271 51.2661 14.4616 50.8576C15.0961 50.4492 15.5885 49.8719 15.8766 49.1987C16.0682 48.7508 16.1647 48.2716 16.1604 47.7885C16.1561 47.3053 16.0512 46.8277 15.8517 46.383C15.6522 45.9383 15.362 45.5352 14.9977 45.1968C14.6334 44.8584 14.2022 44.5913 13.7287 44.4108Z" fill="#F0F0F0"/>
<path fill-rule="evenodd" clip-rule="evenodd" d="M61.2105 15.9677C63.0557 16.6096 64.8017 17.483 66.4016 18.5645L71.2593 16.2292L77.0124 22.7933L73.6787 26.8823C74.5033 28.5721 75.0878 30.3579 75.417 32.1931L80.589 33.7936L79.7556 42.2872L74.3549 42.9545C73.6768 44.7027 72.7542 46.3569 71.6117 47.873L74.0787 52.4715L67.1398 57.9176L62.825 54.7617C61.0438 55.5449 59.1603 56.0998 57.2243 56.4118L55.5336 61.3123L46.5611 60.5189L45.88 55.4154C44.0348 54.7735 42.2888 53.9001 40.6889 52.8187L35.8312 55.1495L30.0781 48.5853L33.4118 44.4963C32.5872 42.8065 32.0027 41.0207 31.6735 39.1855L26.5015 37.5851L27.3063 29.0914L32.707 28.4242C33.3828 26.6753 34.3021 25.0197 35.4407 23.5011L32.9737 18.9071L39.9126 13.4611L44.2274 16.6169C46.0125 15.8321 47.9012 15.2786 49.8424 14.9713L51.5331 10.0708L60.5056 10.8778L61.2105 15.9902V15.9677ZM54.8383 26.6163C52.9343 26.4484 51.0205 26.8188 49.3388 27.6806C47.6572 28.5423 46.2833 29.8569 45.391 31.4578C44.4986 33.0588 44.1278 34.8743 44.3254 36.6748C44.5231 38.4753 45.2804 40.1798 46.5015 41.5729C47.7226 42.9659 49.3527 43.9849 51.1855 44.5009C53.0184 45.0169 54.9718 45.0068 56.7986 44.4718C58.6255 43.9369 60.2437 42.9011 61.4486 41.4955C62.6535 40.0899 63.391 38.3776 63.5679 36.5752C63.6859 35.3786 63.5537 34.1717 63.1789 33.0235C62.804 31.8753 62.1937 30.8083 61.383 29.8834C60.5723 28.9586 59.577 28.194 58.4541 27.6334C57.3311 27.0728 56.1024 26.7272 54.8383 26.6163Z" fill="#E0E0E0"/>
<path d="M23.5486 156.496C29.4922 152.813 31.0019 145.757 30.94 139.365C30.94 138.301 31.0829 137.183 30.5638 136.236C30.0447 135.289 28.8017 134.626 27.7682 135.05C26.9157 135.402 26.5252 136.312 26.0299 137.061C25.3695 138.063 24.4235 138.868 23.301 139.383C22.5676 139.716 21.6674 139.91 20.9626 139.527C20.0101 138.999 19.9101 137.724 19.9434 136.673C20.0101 134.701 20.0736 132.731 20.1339 130.763C20.2315 129.705 20.1446 128.638 19.8768 127.607C19.7347 127.096 19.4656 126.625 19.092 126.233C18.7183 125.841 18.2509 125.539 17.7289 125.353C16.6573 125.046 15.3143 125.596 15.0571 126.624C15.0038 127.061 14.9815 127.501 14.9904 127.941C14.9914 128.161 14.9231 128.377 14.7942 128.561C14.6653 128.745 14.4817 128.888 14.2665 128.973C14.0325 128.993 13.7968 128.957 13.5817 128.867C13.3667 128.777 13.1795 128.637 13.0378 128.459C11.9535 127.311 11.0751 126.003 10.4375 124.586C9.80087 123.172 8.98872 121.834 8.01816 120.601C6.98946 119.411 5.54643 118.455 3.92719 118.347C2.30794 118.239 0.560109 119.122 0.117198 120.601C-0.325713 122.08 0.560109 123.617 1.54594 124.843C3.00494 126.672 4.73578 128.29 6.68466 129.649C7.06411 129.856 7.36429 130.172 7.54191 130.551C7.76575 131.263 7.03233 131.944 6.28462 132.16C5.43213 132.404 4.51774 132.3 3.63668 132.377C2.75562 132.453 1.78407 132.796 1.43164 133.567C0.955393 134.64 1.87932 135.794 2.808 136.556C4.68122 138.089 6.81683 139.309 9.12306 140.163C9.97348 140.403 10.7706 140.788 11.4757 141.299C12.133 141.858 12.514 142.818 12.0901 143.553C11.6662 144.288 10.6185 144.504 9.74694 144.333C8.90658 144.096 8.0892 143.791 7.30379 143.422C5.76074 142.84 3.75097 142.895 2.72228 144.13C2.40462 144.552 2.19604 145.038 2.11332 145.55C2.03061 146.063 2.07606 146.586 2.24603 147.078C2.60174 148.058 3.16215 148.959 3.89385 149.729C6.2954 152.559 9.44526 154.736 13.0235 156.041C16.6002 157.294 19.9387 157.686 23.5534 156.541" fill="#0275A4"/>
<path d="M1.78418 119.208L1.89371 119.312L2.22233 119.596C2.51284 119.848 2.9367 120.218 3.47486 120.709C4.99356 122.094 6.40082 123.585 7.6849 125.168C8.49929 126.164 9.34701 127.296 10.2328 128.522C11.1187 129.748 12.0473 131.074 12.976 132.494C13.9555 133.973 14.8474 135.502 15.6478 137.074C16.0669 137.89 16.4336 138.747 16.8051 139.617C17.1765 140.487 17.5575 141.371 17.9385 142.268C19.3986 145.618 20.6564 149.044 21.7057 152.529C22.5501 155.379 23.1066 158.298 23.3678 161.248C23.5385 163.237 23.5226 165.236 23.3201 167.222C23.2439 167.92 23.1725 168.466 23.1106 168.835C23.082 169.011 23.063 169.151 23.0439 169.255C23.0407 169.303 23.0407 169.351 23.0439 169.399C23.06 169.353 23.0727 169.307 23.082 169.259C23.082 169.156 23.1296 169.016 23.163 168.84C23.2392 168.475 23.3249 167.938 23.4154 167.231C23.6488 165.241 23.6871 163.235 23.5297 161.239C23.2905 158.278 22.7465 155.345 21.9057 152.484C20.8638 148.987 19.6091 145.551 18.1481 142.191C17.7607 141.29 17.3829 140.408 17.0146 139.545C16.6384 138.675 16.2669 137.814 15.8478 136.989C15.0396 135.411 14.1397 133.878 13.1522 132.395C12.1997 130.975 11.2758 129.658 10.39 128.432C9.50417 127.206 8.64216 126.079 7.81349 125.082C6.5103 123.502 5.07709 122.022 3.52725 120.655C2.97956 120.173 2.54141 119.808 2.24138 119.569L1.90324 119.294C1.82704 119.235 1.78894 119.203 1.78418 119.208Z" fill="#263238"/>
<path d="M15.7761 136.98C15.8327 136.834 15.8726 136.683 15.8952 136.529C15.9618 136.236 16.0476 135.816 16.1381 135.289C16.3238 134.238 16.5333 132.782 16.7524 131.177C16.9715 129.572 17.2001 128.121 17.4049 127.075C17.5049 126.556 17.5906 126.133 17.6525 125.84C17.6955 125.692 17.7211 125.541 17.7287 125.389C17.6566 125.532 17.6038 125.684 17.5716 125.84C17.4858 126.124 17.3763 126.543 17.2572 127.061C17.0191 128.103 16.781 129.554 16.5476 131.164C16.3143 132.773 16.1381 134.184 15.9952 135.284C15.9237 135.776 15.8618 136.186 15.819 136.529C15.7863 136.677 15.7719 136.828 15.7761 136.98Z" fill="#263238"/>
<path d="M1.29346 134.112C1.48259 134.155 1.67552 134.181 1.86972 134.189C2.24119 134.23 2.78412 134.284 3.4461 134.374C4.77484 134.536 6.60363 134.825 8.60388 135.221C10.6041 135.618 12.4139 136.065 13.6854 136.412C14.3331 136.583 14.8523 136.736 15.2094 136.84C15.3928 136.905 15.5827 136.952 15.7762 136.98C15.6023 136.897 15.4224 136.826 15.238 136.768C14.8856 136.642 14.3713 136.47 13.7283 136.281C12.4472 135.893 10.6517 135.433 8.64674 135.032C6.93484 134.684 5.20544 134.417 3.46515 134.234C2.79364 134.162 2.25072 134.13 1.87924 134.117C1.68464 134.097 1.48838 134.095 1.29346 134.112Z" fill="#263238"/>
<path d="M21.7197 152.227C21.762 152.178 21.7972 152.123 21.8245 152.065L22.0864 151.578C22.3103 151.154 22.6198 150.536 22.9913 149.775C23.7343 148.233 24.6868 146.073 25.7012 143.679C26.7156 141.285 27.6538 139.117 28.3586 137.566L29.2016 135.727L29.4302 135.226C29.4778 135.109 29.5016 135.046 29.4921 135.046C29.4529 135.097 29.4194 135.151 29.3921 135.208L29.1302 135.695C28.9016 136.119 28.5968 136.737 28.2253 137.498C27.4823 139.04 26.5298 141.2 25.5107 143.594C24.4915 145.988 23.5628 148.156 22.8532 149.707C22.5103 150.464 22.2246 151.086 22.0102 151.546L21.7864 152.047C21.756 152.104 21.7336 152.164 21.7197 152.227Z" fill="#263238"/>
<path d="M2.54126 145.97C2.54126 145.97 2.60317 146.006 2.727 146.051L3.28421 146.236L5.3416 146.912C7.07515 147.48 9.46115 148.292 12.0948 149.193C14.7285 150.095 17.124 150.884 18.8718 151.42C19.7481 151.691 20.453 151.898 20.9483 152.033L21.515 152.187C21.6484 152.223 21.7198 152.236 21.7198 152.227C21.6593 152.196 21.5954 152.17 21.5293 152.151L20.9721 151.961L18.9195 151.29C17.1859 150.721 14.7999 149.91 12.1662 149.008C9.53259 148.107 7.1323 147.313 5.38923 146.777C4.51293 146.511 3.80332 146.299 3.31278 146.164L2.74128 146.01C2.6762 145.991 2.60919 145.977 2.54126 145.97Z" fill="#263238"/>
<path d="M216.815 108.925L188.083 108.799C187.261 108.797 186.447 108.641 185.688 108.341C184.929 108.041 184.241 107.601 183.662 107.048C183.083 106.496 182.626 105.84 182.315 105.119C182.005 104.398 181.848 103.626 181.854 102.848L182.158 34.8488C182.163 34.0717 182.329 33.3029 182.647 32.5866C182.966 31.8703 183.43 31.2203 184.014 30.6739C184.598 30.1276 185.289 29.6954 186.05 29.4023C186.81 29.1091 187.624 28.9607 188.445 28.9654L217.177 29.0872C218.834 29.0931 220.421 29.7211 221.59 30.8334C222.759 31.9456 223.414 33.4513 223.411 35.0201L223.106 103.024C223.104 103.802 222.939 104.573 222.621 105.292C222.303 106.01 221.839 106.662 221.255 107.21C220.67 107.759 219.977 108.192 219.215 108.486C218.454 108.781 217.638 108.93 216.815 108.925Z" fill="#455A64"/>
<path d="M217.139 31.454H211.567C211.386 31.4563 211.207 31.4925 211.041 31.5604C210.874 31.6284 210.724 31.7267 210.598 31.8499C210.472 31.973 210.372 32.1185 210.306 32.278C210.239 32.4376 210.207 32.6079 210.21 32.7794V33.7352C210.214 34.0812 210.073 34.4148 209.819 34.6637C209.565 34.9127 209.218 35.0568 208.852 35.0651L197.989 35.0155C197.807 35.0115 197.627 34.9731 197.46 34.9027C197.294 34.8323 197.144 34.7312 197.019 34.6054C196.894 34.4795 196.796 34.3314 196.732 34.1696C196.669 34.0078 196.639 33.8356 196.646 33.663V32.6983C196.653 32.5258 196.623 32.3539 196.559 32.1924C196.494 32.0309 196.397 31.883 196.272 31.7572C196.147 31.6315 195.998 31.5304 195.831 31.4598C195.665 31.3892 195.485 31.3504 195.303 31.3458H193.341H188.464C187.89 31.3428 187.32 31.447 186.788 31.6525C186.255 31.858 185.771 32.1607 185.362 32.5433C184.954 32.9259 184.629 33.381 184.406 33.8826C184.183 34.3841 184.067 34.9223 184.064 35.4664L183.764 101.842C183.761 102.942 184.22 103.997 185.039 104.776C185.857 105.556 186.97 105.995 188.131 105.999L216.806 106.125C217.967 106.13 219.082 105.699 219.908 104.927C220.734 104.154 221.202 103.103 221.211 102.005L221.506 35.6287C221.511 35.0827 221.401 34.5413 221.184 34.0355C220.966 33.5298 220.646 33.0698 220.24 32.6818C219.834 32.2938 219.351 31.9856 218.819 31.7749C218.287 31.5642 217.716 31.4551 217.139 31.454Z" fill="white"/>
<path d="M216.668 76.6182H188.293V78.417H216.668V76.6182Z" fill="#455A64"/>
<path d="M215.658 83.6919C215.658 83.755 209.6 83.8091 202.133 83.8091C194.665 83.8091 188.602 83.755 188.602 83.6919C188.602 83.6288 194.66 83.5747 202.133 83.5747C209.605 83.5747 215.658 83.6288 215.658 83.6919Z" fill="#455A64"/>
<path d="M215.658 41.0835C215.658 41.1511 209.6 41.2007 202.133 41.2007C194.665 41.2007 188.602 41.1511 188.602 41.0835C188.602 41.0159 194.66 40.9663 202.133 40.9663C209.605 40.9663 215.658 41.0069 215.658 41.0835Z" fill="#455A64"/>
<path d="M215.658 86.9649C215.658 87.028 209.6 87.0821 202.133 87.0821C194.665 87.0821 188.602 87.028 188.602 86.9649C188.602 86.9018 194.66 86.8477 202.133 86.8477C209.605 86.8477 215.658 86.8973 215.658 86.9649Z" fill="#455A64"/>
<path d="M215.658 90.2242C215.658 90.2873 209.6 90.3414 202.133 90.3414C194.665 90.3414 188.602 90.2873 188.602 90.2242C188.602 90.161 194.66 90.1069 202.133 90.1069C209.605 90.1069 215.658 90.1701 215.658 90.2242Z" fill="#455A64"/>
<path d="M215.658 93.5064C215.658 93.5695 209.6 93.6236 202.133 93.6236C194.665 93.6236 188.602 93.5695 188.602 93.5064C188.602 93.4433 194.66 93.3892 202.133 93.3892C209.605 93.3892 215.658 93.4388 215.658 93.5064Z" fill="#455A64"/>
<path d="M215.658 96.7749C215.658 96.8426 209.6 96.8922 202.133 96.8922C194.665 96.8922 188.602 96.8426 188.602 96.7749C188.602 96.7073 194.66 96.6577 202.133 96.6577C209.605 96.6577 215.658 96.7118 215.658 96.7749Z" fill="#455A64"/>
<path d="M216.044 100.485C216.044 100.549 209.986 100.603 202.519 100.603C195.051 100.603 188.988 100.549 188.988 100.485C188.988 100.422 195.046 100.368 202.519 100.368C209.991 100.368 216.044 100.418 216.044 100.485Z" fill="#455A64"/>
<path d="M217.049 44.8032H188.602V70.8568H217.049V44.8032Z" fill="#9DE9FF"/>
<path d="M190.807 68.625L198.68 55.2173L205.114 63.7876L209.024 59.2342L214.844 68.625H190.807Z" fill="#0275A4"/>
<path d="M207.857 52.6114C207.857 52.9948 207.737 53.3696 207.512 53.6884C207.287 54.0072 206.967 54.2557 206.593 54.4024C206.219 54.5492 205.807 54.5876 205.41 54.5128C205.013 54.438 204.648 54.2533 204.361 53.9822C204.075 53.7111 203.88 53.3657 203.801 52.9896C203.722 52.6136 203.762 52.2238 203.917 51.8696C204.072 51.5153 204.335 51.2126 204.672 50.9996C205.008 50.7865 205.404 50.6729 205.809 50.6729C206.352 50.674 206.872 50.8787 207.256 51.242C207.64 51.6053 207.856 52.0977 207.857 52.6114Z" fill="#0275A4"/>
<path d="M214.843 68.697C214.843 68.697 214.843 68.6609 214.843 68.5888C214.843 68.5166 214.843 68.4129 214.843 68.2867C214.843 68.0072 214.843 67.6195 214.843 67.1145C214.843 66.0821 214.843 64.5854 214.81 62.6874C214.81 58.8824 214.777 53.4634 214.753 46.9579L214.867 47.0661H190.836C190.802 47.0931 191.088 46.8226 190.969 46.9398V52.8006C190.969 54.7167 190.969 56.5921 190.969 58.4135C190.969 62.0652 190.969 65.5141 190.969 68.6879L190.85 68.5752L208.228 68.6338L213.134 68.6609H214.434H214.767H214.886H214.782H214.458H213.181L208.305 68.6879L190.85 68.7465H190.731V68.6338C190.731 65.478 190.731 62.0111 190.731 58.3594C190.731 56.5561 190.731 54.6626 190.731 52.7465V46.8857C190.607 46.9984 190.893 46.7234 190.869 46.755H214.901H214.948V46.9443C214.92 53.4814 214.901 58.9229 214.886 62.746C214.886 64.6305 214.886 66.1182 214.858 67.1461C214.858 67.642 214.858 68.0252 214.858 68.2957C214.858 68.4174 214.858 68.5121 214.858 68.5888C214.858 68.6253 214.854 68.6617 214.843 68.697Z" fill="#455A64"/>
<path d="M67.5215 5.90938V65.9692C67.5215 68.845 69.9842 71.1763 73.0222 71.1763H168.862C171.9 71.1763 174.363 68.845 174.363 65.9692V5.90938C174.363 3.03357 171.9 0.702278 168.862 0.702278H73.0222C69.9842 0.702278 67.5215 3.03357 67.5215 5.90938Z" fill="#455A64"/>
<path d="M74.8269 2.92531V68.9541H164.052V2.92531H74.8269Z" fill="white"/>
<path d="M168.991 33.2349C169.556 33.2349 170.109 33.3935 170.579 33.6907C171.048 33.988 171.415 34.4104 171.631 34.9047C171.847 35.399 171.904 35.9429 171.794 36.4676C171.683 36.9923 171.411 37.4743 171.012 37.8526C170.612 38.2309 170.103 38.4885 169.549 38.5929C168.994 38.6972 168.42 38.6437 167.898 38.4389C167.375 38.2342 166.929 37.8875 166.615 37.4427C166.301 36.9978 166.134 36.4748 166.134 35.9399C166.134 35.2224 166.435 34.5344 166.97 34.0271C167.506 33.5199 168.233 33.2349 168.991 33.2349Z" fill="#263238"/>
<path d="M70.5979 25.8771V46.0022C70.5979 46.306 70.858 46.5522 71.1789 46.5522H71.198C71.5189 46.5522 71.779 46.306 71.779 46.0022V25.8771C71.779 25.5733 71.5189 25.3271 71.198 25.3271H71.1789C70.858 25.3271 70.5979 25.5733 70.5979 25.8771Z" fill="#263238"/>
<path d="M143.902 7.88428H115.527V9.68309H143.902V7.88428Z" fill="#455A64"/>
<path d="M106.94 38.7798H78.5654V40.5786H106.94V38.7798Z" fill="#455A64"/>
<path d="M150.812 14.5747C150.812 14.6424 142.916 14.692 133.191 14.692C123.466 14.692 115.546 14.6424 115.546 14.5747C115.546 14.5071 123.442 14.4575 133.191 14.4575C142.94 14.4575 150.812 14.5116 150.812 14.5747Z" fill="#455A64"/>
<path d="M150.812 18.5015C150.812 18.5646 142.916 18.6187 133.191 18.6187C123.466 18.6187 115.546 18.5646 115.546 18.5015C115.546 18.4384 123.442 18.3843 133.191 18.3843C142.94 18.3843 150.812 18.4339 150.812 18.5015Z" fill="#455A64"/>
<path d="M150.812 22.4239C150.812 22.487 142.916 22.5411 133.191 22.5411C123.466 22.5411 115.546 22.487 115.546 22.4239C115.546 22.3607 123.442 22.3066 133.191 22.3066C142.94 22.3066 150.812 22.3607 150.812 22.4239Z" fill="#455A64"/>
<path d="M150.812 26.3457C150.812 26.4134 142.916 26.4629 133.191 26.4629C123.466 26.4629 115.546 26.4134 115.546 26.3457C115.546 26.2781 123.442 26.2285 133.191 26.2285C142.94 26.2285 150.812 26.2826 150.812 26.3457Z" fill="#455A64"/>
<path d="M150.812 30.2637C150.812 30.3268 142.916 30.3809 133.191 30.3809C123.466 30.3809 115.546 30.3268 115.546 30.2637C115.546 30.2006 123.442 30.1465 133.191 30.1465C142.94 30.1465 150.812 30.2051 150.812 30.2637Z" fill="#455A64"/>
<path d="M143.073 34.1953C143.073 34.2585 136.906 34.3126 129.3 34.3126C121.695 34.3126 115.527 34.2585 115.527 34.1953C115.527 34.1322 121.69 34.0781 129.3 34.0781C136.911 34.0781 143.073 34.1322 143.073 34.1953Z" fill="#455A64"/>
<path d="M125.166 45.8535C125.166 45.9167 114.803 45.9708 102.021 45.9708C89.2382 45.9708 78.875 45.9167 78.875 45.8535C78.875 45.7904 89.2382 45.7363 102.021 45.7363C114.803 45.7363 125.166 45.7859 125.166 45.8535Z" fill="#455A64"/>
<path d="M125.166 49.1221C125.166 49.1897 114.803 49.2393 102.021 49.2393C89.2382 49.2393 78.875 49.1897 78.875 49.1221C78.875 49.0545 89.2382 49.0049 102.021 49.0049C114.803 49.0049 125.166 49.059 125.166 49.1221Z" fill="#455A64"/>
<path d="M125.166 52.395C125.166 52.4582 114.803 52.5123 102.021 52.5123C89.2382 52.5123 78.875 52.4582 78.875 52.395C78.875 52.3319 89.2382 52.2778 102.021 52.2778C114.803 52.2778 125.166 52.3274 125.166 52.395Z" fill="#455A64"/>
<path d="M125.166 55.6631C125.166 55.7307 114.803 55.7803 102.021 55.7803C89.2382 55.7803 78.875 55.7307 78.875 55.6631C78.875 55.5955 89.2382 55.5459 102.021 55.5459C114.803 55.5459 125.166 55.6 125.166 55.6631Z" fill="#455A64"/>
<path d="M125.166 58.9366C125.166 58.9997 114.803 59.0538 102.021 59.0538C89.2382 59.0538 78.875 58.9997 78.875 58.9366C78.875 58.8734 89.2382 58.8193 102.021 58.8193C114.803 58.8193 125.166 58.8734 125.166 58.9366Z" fill="#455A64"/>
<path d="M107.321 6.96021H78.875V33.0138H107.321V6.96021Z" fill="#9DE9FF"/>
<path d="M81.0798 30.7866L88.9522 17.3789L95.3864 25.9447L99.2963 21.3958L105.116 30.7866H81.0798Z" fill="#0275A4"/>
<path d="M98.1299 14.7685C98.1309 15.1521 98.0116 15.5274 97.7871 15.8468C97.5627 16.1662 97.2431 16.4153 96.869 16.5628C96.4949 16.7102 96.083 16.7492 95.6855 16.6749C95.2879 16.6006 94.9226 16.4164 94.6357 16.1454C94.3488 15.8745 94.1533 15.5291 94.0739 15.1529C93.9945 14.7767 94.0348 14.3867 94.1896 14.0322C94.3445 13.6777 94.607 13.3747 94.9438 13.1615C95.2807 12.9483 95.6768 12.8345 96.082 12.8345C96.6244 12.8345 97.1445 13.0381 97.5284 13.4007C97.9123 13.7633 98.1287 14.2552 98.1299 14.7685Z" fill="#0275A4"/>
<path d="M105.116 30.8586C105.116 30.8586 105.116 30.818 105.116 30.7504C105.116 30.6828 105.116 30.5746 105.116 30.4484C105.116 30.1688 105.116 29.7766 105.116 29.2762C105.116 28.2393 105.116 26.747 105.088 24.849C105.088 21.044 105.054 15.625 105.031 9.11952L105.145 9.22772H81.1133C81.08 9.25477 81.3657 8.98878 81.2467 9.10599V12.0499C81.2467 13.0237 81.2467 13.993 81.2467 14.9488V20.5616C81.2467 24.2134 81.2467 27.6622 81.2467 30.8361L81.1276 30.7234L98.5059 30.7775L103.407 30.809H104.707H105.045H105.164H105.059H104.735H103.459L98.5821 30.8406L81.1276 30.8947H81.0085V30.782C81.0085 27.6262 81.0085 24.1593 81.0085 20.5075C81.0085 18.6832 81.0085 16.8122 81.0085 14.8947V9.03386C80.8847 9.14657 81.1705 8.87156 81.1466 8.89861H105.178H105.297V9.01132C105.273 15.5439 105.254 20.9899 105.24 24.813C105.24 26.6974 105.216 28.1852 105.211 29.2131C105.211 29.7045 105.211 30.1147 105.211 30.3627C105.211 30.4844 105.211 30.5791 105.211 30.6557C105.208 30.7324 105.174 30.8049 105.116 30.8586Z" fill="#455A64"/>
<path d="M151.684 42.2334H131.553V60.6724H151.684V42.2334Z" fill="#9DE9FF"/>
<path d="M133.115 59.0944L138.683 49.6089L143.24 55.6726L146.007 52.4491L150.122 59.0944H133.115Z" fill="#0275A4"/>
<path d="M145.178 47.7602C145.178 48.0277 145.095 48.2892 144.938 48.5116C144.781 48.734 144.557 48.9074 144.296 49.0098C144.035 49.1121 143.748 49.1389 143.471 49.0867C143.194 49.0345 142.939 48.9057 142.739 48.7166C142.539 48.5274 142.403 48.2864 142.348 48.0241C142.293 47.7617 142.321 47.4898 142.43 47.2426C142.538 46.9955 142.721 46.7843 142.956 46.6357C143.191 46.487 143.467 46.4077 143.75 46.4077C144.128 46.4077 144.492 46.5502 144.76 46.8039C145.028 47.0575 145.178 47.4015 145.178 47.7602Z" fill="#0275A4"/>
<path d="M150.122 59.1437C150.122 59.1437 150.122 59.1167 150.122 59.0716C150.122 59.0265 150.122 58.9454 150.122 58.8552C150.122 58.6568 150.122 58.4044 150.122 58.0257C150.122 57.2953 150.122 56.2223 150.122 54.8699C150.122 52.1649 150.098 48.3418 150.079 43.7388L150.16 43.8155H133.153C133.129 43.8155 133.334 43.6441 133.248 43.7298V47.8684C133.248 49.2209 133.248 50.5449 133.248 51.8403C133.248 54.4235 133.248 56.8625 133.248 59.1077L133.167 59.031L145.416 59.1167H148.884H149.807H150.127C150.127 59.1167 150.103 59.1167 150.055 59.1167H149.827H148.922L145.469 59.1392L133.12 59.1798H133.034V59.0987C133.034 56.8445 133.034 54.4145 133.034 51.8312V43.7884C132.948 43.8651 133.153 43.6712 133.134 43.6937H150.141H150.227V43.7704C150.227 48.3959 150.193 52.246 150.184 54.951C150.184 56.3035 150.184 57.3404 150.16 58.0662C150.16 58.4179 150.16 58.6884 150.16 58.8822C150.16 58.9679 150.16 59.0355 150.16 59.0896C150.16 59.1437 150.127 59.1482 150.122 59.1437Z" fill="#455A64"/>
<path d="M166.175 78.2993H30.7065C26.8742 78.2993 23.7676 81.2402 23.7676 84.8679V165.22C23.7676 168.847 26.8742 171.788 30.7065 171.788H166.175C170.008 171.788 173.114 168.847 173.114 165.22V84.8679C173.114 81.2402 170.008 78.2993 166.175 78.2993Z" fill="#263238"/>
<path d="M17.5244 164.877H179.33V165.035C179.33 167.164 178.437 169.205 176.847 170.71C175.257 172.215 173.101 173.06 170.853 173.06H26.0016C23.7533 173.06 21.5971 172.215 20.0073 170.71C18.4175 169.205 17.5244 167.164 17.5244 165.035V164.877Z" fill="#263238"/>
<path d="M168.69 82.0142H27.7778V160.964H168.69V82.0142Z" fill="#E0E0E0"/>
<path d="M83.718 164.877L85.7278 167.903H113.979L115.846 164.877H83.718Z" fill="#455A64"/>
<path d="M162.213 87.2754H32.4783V160.937H162.213V87.2754Z" fill="#FAFAFA"/>
<path d="M38.0172 90.9048C38.0181 91.1092 37.9549 91.3093 37.8357 91.4796C37.7164 91.65 37.5464 91.783 37.3472 91.8619C37.148 91.9407 36.9286 91.9618 36.7167 91.9225C36.5048 91.8831 36.3101 91.7852 36.1571 91.641C36.0041 91.4968 35.8997 91.3128 35.8572 91.1124C35.8148 90.912 35.8361 90.7042 35.9185 90.5153C36.0009 90.3264 36.1407 90.1649 36.3201 90.0513C36.4996 89.9376 36.7106 89.877 36.9265 89.877C37.215 89.877 37.4916 89.9851 37.696 90.1777C37.9004 90.3704 38.0159 90.6318 38.0172 90.9048Z" fill="#455A64"/>
<path d="M42.4561 90.9049C42.4571 91.1094 42.3938 91.3097 42.2743 91.4801C42.1548 91.6506 41.9845 91.7836 41.7851 91.8623C41.5856 91.941 41.3659 91.9618 41.1539 91.9221C40.9419 91.8824 40.7471 91.784 40.5943 91.6394C40.4415 91.4947 40.3376 91.3104 40.2956 91.1097C40.2537 90.909 40.2757 90.701 40.3588 90.5122C40.442 90.3234 40.5825 90.1622 40.7626 90.0491C40.9426 89.936 41.1542 89.8761 41.3703 89.877C41.6582 89.877 41.9344 89.9853 42.1381 90.178C42.3417 90.3708 42.4561 90.6322 42.4561 90.9049Z" fill="#455A64"/>
<path d="M46.8995 90.9049C46.9004 91.1092 46.8373 91.3093 46.718 91.4797C46.5987 91.65 46.4287 91.7831 46.2295 91.8619C46.0303 91.9407 45.8109 91.9618 45.599 91.9225C45.3872 91.8832 45.1924 91.7852 45.0394 91.641C44.8864 91.4968 44.782 91.3128 44.7396 91.1124C44.6971 90.9121 44.7184 90.7042 44.8008 90.5153C44.8832 90.3264 45.023 90.1649 45.2025 90.0513C45.3819 89.9376 45.593 89.877 45.8089 89.877C45.9519 89.8764 46.0936 89.9025 46.2259 89.9539C46.3581 90.0053 46.4784 90.0809 46.5797 90.1764C46.6811 90.2719 46.7615 90.3854 46.8164 90.5104C46.8712 90.6355 46.8995 90.7695 46.8995 90.9049Z" fill="#455A64"/>
<path d="M162.213 95.4131C162.213 95.4807 133.162 95.5303 97.3481 95.5303C61.5342 95.5303 32.4783 95.4807 32.4783 95.4131C32.4783 95.3455 61.5294 95.2959 97.3481 95.2959C133.167 95.2959 162.213 95.35 162.213 95.4131Z" fill="#455A64"/>
<path d="M173.114 164.94H23.7676V165.391H173.114V164.94Z" fill="#455A64"/>
<path d="M71.4879 131.205H43.113V133.003H71.4879V131.205Z" fill="#455A64"/>
<path d="M108.14 106.256H79.7651V108.055H108.14V106.256Z" fill="#455A64"/>
<path d="M150.345 112.95C150.345 113.013 134.543 113.068 115.055 113.068C95.5671 113.068 79.7651 113.013 79.7651 112.95C79.7651 112.887 95.5623 112.829 115.055 112.829C134.548 112.829 150.345 112.883 150.345 112.95Z" fill="#455A64"/>
<path d="M150.345 116.873C150.345 116.936 134.543 116.99 115.055 116.99C95.5671 116.99 79.7651 116.936 79.7651 116.873C79.7651 116.809 95.5623 116.755 115.055 116.755C134.548 116.755 150.345 116.823 150.345 116.873Z" fill="#455A64"/>
<path d="M150.345 120.795C150.345 120.863 134.543 120.912 115.055 120.912C95.5671 120.912 79.7651 120.863 79.7651 120.795C79.7651 120.727 95.5623 120.678 115.055 120.678C134.548 120.678 150.345 120.732 150.345 120.795Z" fill="#455A64"/>
<path d="M150.345 124.721C150.345 124.784 134.543 124.839 115.055 124.839C95.5671 124.839 79.7651 124.784 79.7651 124.721C79.7651 124.658 95.5623 124.6 115.055 124.6C134.548 124.6 150.345 124.654 150.345 124.721Z" fill="#455A64"/>
<path d="M150.345 128.644C150.345 128.707 134.543 128.761 115.055 128.761C95.5671 128.761 79.7651 128.707 79.7651 128.644C79.7651 128.58 95.5623 128.526 115.055 128.526C134.548 128.526 150.345 128.576 150.345 128.644Z" fill="#455A64"/>
<path d="M107.316 132.566C107.316 132.629 101.149 132.683 93.543 132.683C85.9373 132.683 79.7651 132.629 79.7651 132.566C79.7651 132.503 85.9564 132.449 93.543 132.449C101.13 132.449 107.316 132.503 107.316 132.566Z" fill="#455A64"/>
<path d="M149.826 140.181C149.826 140.248 139.439 140.298 126.633 140.298C113.827 140.298 103.44 140.248 103.44 140.181C103.44 140.113 113.822 140.063 126.633 140.063C139.444 140.063 149.826 140.118 149.826 140.181Z" fill="#455A64"/>
<path d="M149.826 144.347C149.826 144.41 139.439 144.464 126.633 144.464C113.827 144.464 103.44 144.41 103.44 144.347C103.44 144.284 113.822 144.229 126.633 144.229C139.444 144.229 149.826 144.284 149.826 144.347Z" fill="#455A64"/>
<path d="M149.826 148.512C149.826 148.575 139.439 148.629 126.633 148.629C113.827 148.629 103.44 148.575 103.44 148.512C103.44 148.449 113.822 148.395 126.633 148.395C139.444 148.395 149.826 148.445 149.826 148.512Z" fill="#455A64"/>
<path d="M149.826 152.677C149.826 152.74 139.439 152.794 126.633 152.794C113.827 152.794 103.44 152.74 103.44 152.677C103.44 152.614 113.822 152.56 126.633 152.56C139.444 152.56 149.826 152.61 149.826 152.677Z" fill="#455A64"/>
<path d="M71.5594 139.784C71.5594 139.847 65.3682 139.901 57.7482 139.901C50.1282 139.901 43.937 139.847 43.937 139.784C43.937 139.721 50.1282 139.667 57.7482 139.667C65.3682 139.667 71.5594 139.717 71.5594 139.784Z" fill="#455A64"/>
<path d="M71.5594 143.053C71.5594 143.12 65.3682 143.17 57.7482 143.17C50.1282 143.17 43.937 143.12 43.937 143.053C43.937 142.985 50.1282 142.936 57.7482 142.936C65.3682 142.936 71.5594 142.972 71.5594 143.053Z" fill="#455A64"/>
<path d="M71.5594 146.325C71.5594 146.388 65.3682 146.442 57.7482 146.442C50.1282 146.442 43.937 146.388 43.937 146.325C43.937 146.262 50.1282 146.208 57.7482 146.208C65.3682 146.208 71.5594 146.262 71.5594 146.325Z" fill="#455A64"/>
<path d="M71.5594 149.594C71.5594 149.662 65.3682 149.711 57.7482 149.711C50.1282 149.711 43.937 149.662 43.937 149.594C43.937 149.527 50.1282 149.477 57.7482 149.477C65.3682 149.477 71.5594 149.531 71.5594 149.594Z" fill="#455A64"/>
<path d="M71.5594 152.89C71.5594 152.953 65.3682 153.007 57.7482 153.007C50.1282 153.007 43.937 152.953 43.937 152.89C43.937 152.827 50.1282 152.772 57.7482 152.772C65.3682 152.772 71.5594 152.804 71.5594 152.89Z" fill="#455A64"/>
<path d="M71.5594 100.386H43.113V126.439H71.5594V100.386Z" fill="#9DE9FF"/>
<path d="M45.3184 124.208L53.1907 110.8L59.6249 119.371L63.5396 114.822L69.3546 124.208H45.3184Z" fill="#0275A4"/>
<path d="M62.368 108.194C62.368 108.578 62.2479 108.953 62.0228 109.271C61.7978 109.59 61.478 109.839 61.1038 109.985C60.7296 110.132 60.3178 110.171 59.9206 110.096C59.5233 110.021 59.1584 109.836 58.872 109.565C58.5856 109.294 58.3906 108.949 58.3116 108.573C58.2326 108.197 58.2731 107.807 58.4281 107.453C58.5831 107.098 58.8456 106.796 59.1823 106.583C59.5191 106.37 59.9151 106.256 60.3201 106.256C60.8632 106.256 61.3841 106.46 61.7681 106.824C62.1522 107.187 62.368 107.68 62.368 108.194Z" fill="#0275A4"/>
<path d="M69.3543 124.28C69.3523 124.245 69.3523 124.21 69.3543 124.176C69.3543 124.095 69.3543 123.996 69.3543 123.869C69.3543 123.594 69.3543 123.202 69.3543 122.697C69.3543 121.665 69.3543 120.173 69.321 118.275C69.321 114.47 69.2876 109.051 69.2638 102.541L69.3781 102.653H45.3466C45.3133 102.68 45.599 102.41 45.4799 102.527V108.388C45.4799 110.299 45.4799 112.175 45.4799 114.001C45.4799 117.648 45.4799 121.097 45.4799 124.271L45.3609 124.162L62.7392 124.217L67.6446 124.248H68.9447H69.3972C69.3972 124.248 69.3638 124.248 69.2924 124.248H68.9685H67.6922L62.8154 124.28L45.3609 124.334H45.2466V124.221C45.2466 121.065 45.2466 117.598 45.2466 113.951C45.2466 112.125 45.2466 110.25 45.2466 108.338V102.477L45.3847 102.347H69.4162H69.5353V102.455C69.5353 108.992 69.4876 114.433 69.4734 118.257C69.4734 120.146 69.4734 121.629 69.4448 122.657C69.4448 123.153 69.4448 123.536 69.4448 123.811C69.4448 123.932 69.4448 124.027 69.4448 124.099C69.4448 124.171 69.3591 124.284 69.3543 124.28Z" fill="#455A64"/>
<path d="M99.8771 138.193H79.7461V156.632H99.8771V138.193Z" fill="#9DE9FF"/>
<path d="M81.3081 155.053L86.8754 145.568L91.4331 151.632L94.2001 148.408L98.3197 155.053H81.3081Z" fill="#0275A4"/>
<path d="M93.3719 143.72C93.3719 143.987 93.2881 144.249 93.1311 144.471C92.9741 144.694 92.751 144.867 92.4899 144.969C92.2288 145.072 91.9416 145.098 91.6644 145.046C91.3873 144.994 91.1327 144.865 90.9329 144.676C90.7331 144.487 90.597 144.246 90.5419 143.984C90.4867 143.721 90.515 143.449 90.6232 143.202C90.7313 142.955 90.9144 142.744 91.1494 142.595C91.3843 142.447 91.6606 142.367 91.9431 142.367C92.3221 142.367 92.6855 142.51 92.9534 142.763C93.2214 143.017 93.3719 143.361 93.3719 143.72Z" fill="#0275A4"/>
<path d="M98.3198 155.108C98.3181 155.082 98.3181 155.057 98.3198 155.031C98.3198 154.977 98.3198 154.905 98.3198 154.815C98.3198 154.621 98.3198 154.364 98.3198 153.985C98.3198 153.255 98.3198 152.182 98.296 150.852C98.296 148.147 98.296 144.324 98.2579 139.721L98.3389 139.797H81.3273C81.3273 139.797 81.5083 139.626 81.4225 139.712V147.827C81.4225 150.41 81.4225 152.849 81.4225 155.099L81.3368 155.018L93.6383 155.058L97.1054 155.081H98.0246H97.1197H93.6717L81.3178 155.121H81.2368V155.045C81.2368 152.79 81.2368 150.356 81.2368 147.773C81.2368 146.483 81.2368 145.153 81.2368 143.801V139.671C81.1511 139.748 81.3511 139.554 81.3321 139.577H98.3437H98.4246V139.653C98.4246 144.279 98.3913 148.129 98.3817 150.838C98.3817 152.191 98.3817 153.223 98.3817 153.949C98.3817 154.301 98.3817 154.571 98.3817 154.765C98.3817 154.851 98.3817 154.918 98.3817 154.972C98.3706 155.021 98.3495 155.067 98.3198 155.108Z" fill="#455A64"/>
<path d="M267.979 165.062L263.216 164.526L262.097 172.974L269.065 173.826L269.169 173.308C269.617 170.991 271.26 161.505 270.965 159.887C270.636 158.083 267.979 165.062 267.979 165.062Z" fill="#0275A4"/>
<path d="M270.55 159.282C270.636 159.282 270.308 162.465 269.817 166.365C269.327 170.265 268.865 173.42 268.779 173.411C268.693 173.402 269.026 170.255 269.512 166.329C269.998 162.402 270.465 159.273 270.55 159.282Z" fill="#263238"/>
<path d="M268.969 164.665C268.922 164.728 268.674 164.638 268.445 164.431C268.217 164.224 268.121 163.98 268.188 163.94C268.255 163.899 268.455 164.03 268.664 164.224C268.874 164.417 269.022 164.611 268.969 164.665Z" fill="#263238"/>
<path d="M269.35 164.16C269.312 164.232 269.031 164.16 268.755 163.962C268.479 163.764 268.326 163.511 268.388 163.466C268.45 163.421 268.683 163.543 268.941 163.727C269.198 163.912 269.393 164.088 269.35 164.16Z" fill="#263238"/>
<path d="M269.069 170.86C269.069 170.896 268.95 171.009 268.712 171.171C268.409 171.366 268.127 171.588 267.869 171.834C267.625 172.078 267.449 172.375 267.355 172.7C267.288 172.952 267.307 173.119 267.259 173.128C267.212 173.137 267.126 172.97 267.14 172.677C267.174 172.292 267.341 171.929 267.617 171.645C267.889 171.375 268.212 171.157 268.569 171C268.869 170.874 269.045 170.824 269.069 170.86Z" fill="#263238"/>
<path d="M268.078 164.539C268.155 164.507 268.307 164.674 268.364 164.922C268.421 165.17 268.364 165.373 268.278 165.373C268.193 165.373 268.116 165.193 268.064 164.972C268.012 164.751 267.997 164.571 268.078 164.539Z" fill="#263238"/>
<path d="M267.603 164.611C267.684 164.611 267.726 164.846 267.698 165.134C267.669 165.423 267.569 165.639 267.488 165.621C267.407 165.603 267.36 165.373 267.393 165.103C267.426 164.832 267.517 164.611 267.603 164.611Z" fill="#263238"/>
<path d="M265.074 173.646L238.675 171.112L183.935 172.27L198.489 161.162L235.023 159.503L266.964 163.669L265.074 173.646Z" fill="#263238"/>
<path d="M220.454 166.708C220.454 166.775 215.315 166.825 208.976 166.825C202.637 166.825 197.503 166.775 197.503 166.708C197.503 166.64 202.637 166.59 208.976 166.59C215.315 166.59 220.454 166.644 220.454 166.708Z" fill="#455A64"/>
<path d="M217.901 160.278L219.777 171.455H223.378L220.639 160.157L217.901 160.278Z" fill="black"/>
<path d="M231.836 171.604L231.303 167.095L222.354 167.997L223.045 174.597H223.602C226.088 174.48 236.218 173.84 237.813 173.199C239.614 172.465 231.836 171.604 231.836 171.604Z" fill="#0275A4"/>
<path d="M237.999 172.726C237.999 172.807 234.665 173.227 230.545 173.664C226.426 174.101 223.073 174.39 223.063 174.309C223.054 174.228 226.397 173.813 230.512 173.375C234.627 172.938 237.989 172.663 237.999 172.726Z" fill="#263238"/>
<path d="M232.093 172.51C232.012 172.478 232.05 172.23 232.212 171.973C232.374 171.716 232.598 171.572 232.66 171.622C232.722 171.671 232.627 171.888 232.479 172.122C232.331 172.356 232.179 172.541 232.093 172.51Z" fill="#263238"/>
<path d="M232.708 172.726C232.627 172.726 232.637 172.433 232.779 172.131C232.922 171.829 233.132 171.64 233.203 171.68C233.275 171.721 233.203 171.964 233.06 172.244C232.918 172.523 232.789 172.767 232.708 172.726Z" fill="#263238"/>
<path d="M225.75 174.007C225.721 174.034 225.569 173.93 225.35 173.75C225.08 173.516 224.788 173.306 224.478 173.123C224.171 172.954 223.824 172.859 223.468 172.848C223.197 172.848 223.025 172.897 222.992 172.848C222.959 172.798 223.121 172.69 223.435 172.636C223.844 172.581 224.261 172.661 224.616 172.861C224.954 173.054 225.252 173.305 225.492 173.601C225.692 173.831 225.783 173.979 225.75 174.007Z" fill="#263238"/>
<path d="M232.026 171.658C232.079 171.721 231.941 171.897 231.698 172.01C231.455 172.122 231.221 172.113 231.221 172.037C231.221 171.96 231.369 171.847 231.583 171.748C231.798 171.649 231.979 171.59 232.026 171.658Z" fill="#263238"/>
<path d="M231.836 171.234C231.836 171.315 231.622 171.405 231.322 171.441C231.022 171.478 230.774 171.441 230.769 171.36C230.765 171.279 230.998 171.189 231.284 171.153C231.569 171.117 231.817 171.157 231.836 171.234Z" fill="#263238"/>
<path d="M179.477 120.033L187.097 119.902C187.202 119.068 187.35 115.818 187.35 115.818C187.35 115.818 190.54 115.534 190.774 112.549C191.007 109.565 190.907 102.658 190.907 102.658C189.159 101.822 187.206 101.444 185.251 101.561C183.296 101.678 181.41 102.287 179.787 103.325L179.311 103.641L179.477 120.033Z" fill="#FFBE9D"/>
<path d="M189.855 107.757C189.772 107.673 189.726 107.563 189.726 107.448C189.726 107.333 189.772 107.223 189.855 107.139C189.92 107.073 190.005 107.028 190.098 107.008C190.192 106.988 190.289 106.995 190.378 107.029C190.466 107.062 190.542 107.12 190.596 107.195C190.65 107.269 190.678 107.358 190.678 107.448C190.678 107.538 190.65 107.627 190.596 107.701C190.542 107.776 190.466 107.834 190.378 107.867C190.289 107.9 190.192 107.908 190.098 107.888C190.005 107.868 189.92 107.823 189.855 107.757Z" fill="#263238"/>
<path d="M190.66 107.116C190.607 107.166 190.312 106.922 189.879 106.895C189.445 106.868 189.112 107.062 189.069 107.008C189.026 106.954 189.102 106.891 189.245 106.801C189.44 106.685 189.668 106.631 189.898 106.647C190.126 106.661 190.344 106.745 190.517 106.886C190.66 106.999 190.693 107.094 190.66 107.116Z" fill="#263238"/>
<path d="M185.63 107.184C185.699 107.261 185.738 107.356 185.743 107.456C185.747 107.556 185.716 107.654 185.655 107.736C185.594 107.818 185.506 107.878 185.405 107.907C185.304 107.936 185.196 107.932 185.097 107.896C185.029 107.872 184.968 107.833 184.919 107.783C184.869 107.732 184.832 107.672 184.811 107.606C184.79 107.54 184.785 107.471 184.797 107.403C184.808 107.335 184.836 107.271 184.878 107.215C184.92 107.158 184.975 107.112 185.039 107.079C185.103 107.046 185.174 107.028 185.246 107.025C185.319 107.022 185.391 107.035 185.458 107.062C185.525 107.09 185.584 107.132 185.63 107.184Z" fill="#263238"/>
<path d="M185.897 107.202C185.845 107.252 185.55 107.008 185.111 106.981C184.673 106.954 184.349 107.148 184.302 107.094C184.254 107.04 184.335 106.977 184.483 106.887C184.677 106.771 184.905 106.717 185.134 106.733C185.363 106.75 185.581 106.835 185.754 106.977C185.897 107.085 185.94 107.184 185.897 107.202Z" fill="#263238"/>
<path d="M187.44 110.705C187.669 110.634 187.909 110.601 188.15 110.606C188.264 110.606 188.359 110.579 188.369 110.525C188.381 110.416 188.359 110.307 188.307 110.209L188.017 109.353C187.737 108.622 187.536 107.867 187.417 107.099C187.774 107.795 188.055 108.525 188.255 109.276C188.35 109.574 188.436 109.858 188.526 110.137C188.591 110.28 188.603 110.439 188.559 110.588C188.54 110.628 188.511 110.664 188.474 110.692C188.438 110.72 188.396 110.74 188.35 110.75C188.285 110.759 188.219 110.759 188.155 110.75C187.916 110.773 187.674 110.758 187.44 110.705Z" fill="#263238"/>
<path d="M185.997 111.079C185.559 110.795 187.202 111.778 188.092 111.787C187.93 111.995 187.698 112.145 187.435 112.213C187.171 112.281 186.891 112.263 186.64 112.161C185.716 111.778 185.997 111.079 185.997 111.079Z" fill="white"/>
<path d="M187.369 115.772C185.907 115.712 184.498 115.241 183.321 114.42C183.321 114.42 184.154 116.629 187.326 116.543L187.369 115.772Z" fill="#A36957"/>
<path d="M191.136 101.58C191.317 101.575 191.494 101.53 191.654 101.449C191.814 101.368 191.952 101.254 192.058 101.115C192.164 100.976 192.235 100.815 192.266 100.646C192.296 100.477 192.285 100.304 192.233 100.139C192.182 99.9748 192.091 99.8237 191.968 99.6976C191.846 99.5714 191.694 99.4736 191.525 99.4117C191.356 99.3497 191.174 99.3252 190.994 99.3401C190.813 99.355 190.639 99.4089 190.483 99.4976C190.862 99.2027 191.17 98.8355 191.388 98.4201C191.493 98.2112 191.528 97.977 191.488 97.7489C191.448 97.5208 191.335 97.3098 191.164 97.1442C190.966 97.015 190.734 96.9391 190.493 96.9248C190.252 96.9105 190.012 96.9583 189.798 97.0631C189.126 97.3381 188.597 97.8746 187.893 98.1C187.188 98.3254 186.435 98.2127 185.697 98.2442C184.874 98.259 184.078 98.5193 183.421 98.9881C183.097 99.2249 182.837 99.5301 182.661 99.8793C182.485 100.228 182.397 100.612 182.406 100.999C181.373 100.882 180.23 100.868 179.415 101.477C179.088 101.753 178.829 102.094 178.657 102.476C178.485 102.858 178.404 103.271 178.42 103.686C178.499 104.514 178.708 105.327 179.039 106.098C179.097 106.324 179.204 106.536 179.353 106.72L179.739 108.866L181.144 108.839L181.054 104.376C181.054 104.376 180.911 102.491 182.625 102.658C184.34 102.825 186.659 104.651 189.988 104.186C190.532 104.159 191.063 104.016 191.541 103.767C191.772 103.629 191.96 103.435 192.086 103.205C192.211 102.975 192.27 102.718 192.255 102.46C192.226 102.204 192.093 101.969 191.884 101.805C191.675 101.641 191.407 101.56 191.136 101.58Z" fill="#263238"/>
<path d="M179.916 106.292C179.844 106.269 177.568 105.99 177.782 108.546C177.996 111.102 180.64 110.043 180.64 109.97C180.64 109.898 179.916 106.292 179.916 106.292Z" fill="#FFBE9D"/>
<path d="M179.744 109.127C179.744 109.127 179.696 109.159 179.62 109.199C179.513 109.253 179.389 109.266 179.272 109.235C179.091 109.144 178.938 109.009 178.829 108.843C178.72 108.678 178.66 108.488 178.653 108.293C178.626 108.076 178.652 107.855 178.73 107.649C178.748 107.567 178.787 107.49 178.843 107.426C178.899 107.361 178.972 107.311 179.053 107.279C179.106 107.262 179.164 107.263 179.216 107.282C179.268 107.3 179.312 107.336 179.339 107.383C179.382 107.45 179.368 107.5 179.382 107.504C179.396 107.509 179.439 107.459 179.406 107.356C179.387 107.292 179.345 107.238 179.287 107.202C179.248 107.179 179.206 107.162 179.161 107.155C179.116 107.147 179.069 107.148 179.025 107.157C178.911 107.186 178.807 107.243 178.723 107.322C178.64 107.402 178.579 107.5 178.549 107.608C178.451 107.836 178.417 108.085 178.449 108.329C178.454 108.556 178.53 108.777 178.667 108.963C178.804 109.149 178.997 109.293 179.22 109.375C179.294 109.39 179.371 109.389 179.444 109.372C179.517 109.355 179.586 109.322 179.644 109.276C179.744 109.186 179.753 109.132 179.744 109.127Z" fill="#A36957"/>
<path d="M173.296 164.611C174.724 166.626 183.387 178.97 193.731 169.994C206.909 158.57 217.33 148.562 217.33 148.562L221.244 171.171L233.513 170.54C233.513 170.54 228.75 136.876 225.712 133.815C222.335 130.398 219.23 130.686 192.712 150.496L173.296 164.611Z" fill="#455A64"/>
<path d="M217.177 126.272L228.636 118.355L229.198 119.208L217.816 127.219L217.177 126.272Z" fill="#263238"/>
<path d="M220.011 126.029C220.011 126.029 221.545 122.242 221.916 121.435C222.287 120.628 222.845 119.221 223.064 119.181C223.283 119.14 224.083 119.271 223.064 121.678C222.045 124.086 224.302 122.616 224.302 122.616L226.507 121.119C226.507 121.119 228.25 126.051 227.259 127.539C226.481 128.65 225.606 129.698 224.645 130.672L220.011 126.029Z" fill="#FFBE9D"/>
<path d="M220.139 125.587C219.911 125.095 205.338 137.277 202.437 137.692L193.941 127.219C193.941 127.219 192.179 124.568 188.393 120.033C185.945 117.107 179.201 117.715 177.439 121.281C174.429 127.341 174.391 134.076 172.786 147.182L172.086 156.045C171.935 157.931 171.965 159.826 172.176 161.707C172.434 163.903 172.957 166.216 174.034 165.887L193.47 150.68L194.093 143.773C198.18 147.696 199.451 148.516 201.575 148.201C206.924 147.416 225.645 131.479 225.645 131.479C225.645 131.479 220.363 126.083 220.139 125.587Z" fill="#0275A4"/>
<path d="M223.135 133.693C222.756 133.477 222.405 133.218 222.092 132.922C221.296 132.249 220.549 131.525 219.858 130.754C219.163 129.986 218.527 129.173 217.953 128.319C217.698 127.975 217.483 127.607 217.311 127.219C217.599 127.535 217.862 127.871 218.096 128.225C218.573 128.851 219.239 129.708 220.044 130.6C220.849 131.493 221.63 132.26 222.211 132.801C222.541 133.077 222.85 133.375 223.135 133.693Z" fill="#263238"/>
<path d="M201.614 141.845C201.621 141.139 201.711 140.436 201.88 139.748C201.974 139.047 202.146 138.358 202.395 137.692C202.387 138.398 202.298 139.101 202.128 139.789C202.035 140.49 201.863 141.179 201.614 141.845Z" fill="#263238"/>
<path d="M203.471 141.411C203.176 140.838 202.959 140.232 202.823 139.608C202.612 139.004 202.477 138.379 202.418 137.746C202.712 138.319 202.93 138.925 203.066 139.549C203.276 140.153 203.411 140.778 203.471 141.411Z" fill="#263238"/>
<path d="M182.43 129.059C182.605 129.241 182.764 129.435 182.906 129.64L184.173 131.272C185.245 132.647 186.74 134.541 188.412 136.61L192.722 141.903L194.022 143.512C194.198 143.703 194.357 143.906 194.498 144.121C194.307 143.949 194.13 143.764 193.97 143.566C193.641 143.201 193.179 142.665 192.608 142.006C191.469 140.677 189.912 138.828 188.24 136.754C186.569 134.68 185.092 132.769 184.059 131.367C183.54 130.668 183.106 130.095 182.849 129.694C182.692 129.493 182.552 129.281 182.43 129.059Z" fill="#263238"/>
<path d="M179.944 137.967C179.44 137.697 178.98 137.36 178.577 136.966C178.119 136.628 177.714 136.23 177.372 135.785C177.879 136.055 178.341 136.394 178.744 136.791C179.203 137.125 179.607 137.521 179.944 137.967Z" fill="#263238"/>
<path d="M178.277 143.048C177.78 144.022 177.139 144.924 176.372 145.726C176.582 145.22 176.869 144.746 177.225 144.319C177.509 143.85 177.864 143.422 178.277 143.048Z" fill="#263238"/>
<path d="M180.62 150.059C180.568 150.099 180.144 149.693 179.668 149.157C179.347 148.851 179.086 148.494 178.896 148.102C178.949 148.061 179.372 148.467 179.849 149.004C180.17 149.309 180.432 149.666 180.62 150.059Z" fill="#263238"/>
<path d="M176.086 154.553C175.786 154.887 175.425 155.166 175.02 155.378C174.66 155.654 174.252 155.868 173.815 156.009C174.115 155.676 174.477 155.397 174.881 155.184C175.241 154.909 175.649 154.695 176.086 154.553Z" fill="#263238"/>
<path d="M182.425 155.743C181.921 155.535 181.484 155.203 181.159 154.783C180.772 154.406 180.498 153.94 180.363 153.43C180.43 153.399 180.778 153.994 181.344 154.621C181.911 155.247 182.468 155.685 182.425 155.743Z" fill="#263238"/>
<path d="M188.335 151.497C187.987 151.928 187.577 152.31 187.116 152.633C186.706 153.012 186.241 153.334 185.735 153.588C186.083 153.157 186.493 152.775 186.954 152.452C187.363 152.072 187.828 151.75 188.335 151.497Z" fill="#263238"/>
<path d="M176.172 159.697C175.358 159.343 174.712 158.717 174.358 157.939C174.415 157.903 174.772 158.335 175.272 158.813C175.772 159.291 176.215 159.652 176.172 159.697Z" fill="#263238"/>
<path d="M189.388 147.479C188.57 147.923 187.627 148.115 186.688 148.03C187.578 147.804 188.479 147.621 189.388 147.479Z" fill="#263238"/>
<path d="M184.988 142.741C184.889 143.291 184.729 143.829 184.511 144.346C184.356 144.867 184.17 145.378 183.954 145.879H183.902C183.902 145.852 183.93 145.843 183.94 145.843C183.949 145.843 183.94 145.843 183.94 145.893H183.887C183.943 145.351 184.068 144.819 184.259 144.306C184.404 143.748 184.651 143.219 184.988 142.741Z" fill="#263238"/>
<path d="M186.849 139.734C186.333 139.53 185.851 139.253 185.421 138.914C184.948 138.638 184.523 138.296 184.159 137.899C184.666 138.108 185.139 138.384 185.564 138.72C186.043 138.995 186.477 139.337 186.849 139.734Z" fill="#263238"/>
<path d="M183.04 133.107C182.896 133.554 182.656 133.969 182.335 134.324C182.077 134.723 181.737 135.068 181.335 135.339C181.548 134.923 181.817 134.535 182.135 134.184C182.384 133.788 182.688 133.426 183.04 133.107Z" fill="#263238"/>
<path d="M177.239 132.205C177.159 131.699 177.159 131.184 177.239 130.677C177.245 130.166 177.332 129.658 177.496 129.171C177.582 129.676 177.582 130.19 177.496 130.695C177.495 131.208 177.408 131.718 177.239 132.205Z" fill="#263238"/>
<path d="M174.977 142.141C174.848 141.602 174.796 141.048 174.825 140.496C174.776 139.946 174.808 139.392 174.92 138.85C175.104 139.939 175.123 141.047 174.977 142.141Z" fill="#263238"/>
<path d="M174.662 151.672C174.446 151.38 174.301 151.046 174.239 150.694C174.098 150.363 174.033 150.008 174.048 149.652C174.411 150.273 174.622 150.964 174.662 151.672Z" fill="#263238"/>
<path d="M182.682 124.771C182.304 125.182 181.894 125.565 181.454 125.917C181.073 126.325 180.657 126.704 180.211 127.048C180.47 126.55 180.834 126.108 181.282 125.75C181.671 125.334 182.148 125.001 182.682 124.771Z" fill="#263238"/>
<path d="M179.277 123.694C179.174 123.202 179.155 122.699 179.22 122.201C179.201 121.701 179.265 121.2 179.41 120.718C179.511 121.21 179.53 121.713 179.468 122.211C179.484 122.711 179.42 123.211 179.277 123.694Z" fill="#263238"/>
<path d="M187.621 122.62C186.726 122.108 185.861 121.55 185.031 120.948C186.033 121.283 186.926 121.859 187.621 122.62Z" fill="#263238"/>
<path d="M185.807 128.247C185.675 127.731 185.622 127.2 185.649 126.669C185.598 126.141 185.629 125.607 185.74 125.087C185.927 126.13 185.949 127.193 185.807 128.243V128.247Z" fill="#263238"/>
<path d="M190.693 131.538C189.732 131.357 188.779 131.141 187.836 130.889C188.835 130.832 189.83 131.058 190.693 131.538Z" fill="#263238"/>
<path d="M191.026 128.184C190.858 127.306 190.858 126.407 191.026 125.529C191.151 125.96 191.198 126.408 191.164 126.854C191.202 127.302 191.155 127.752 191.026 128.184Z" fill="#263238"/>
<path d="M194.751 133.815C194.599 133.27 194.53 132.706 194.546 132.143C194.481 131.583 194.497 131.017 194.594 130.461C194.808 131.567 194.861 132.696 194.751 133.815Z" fill="#263238"/>
<path d="M191.889 135.717C191.836 135.762 191.45 135.429 191.027 134.978C190.603 134.527 190.298 134.121 190.35 134.076C190.403 134.031 190.788 134.365 191.212 134.82C191.636 135.276 191.941 135.677 191.889 135.717Z" fill="#263238"/>
<path d="M195.508 138.314C195.059 138.459 194.587 138.532 194.113 138.53C193.64 138.608 193.157 138.608 192.684 138.53C193.13 138.38 193.601 138.307 194.074 138.314C194.548 138.23 195.034 138.23 195.508 138.314Z" fill="#263238"/>
<path d="M198.232 139.631C198.031 138.652 197.99 137.65 198.113 136.66C198.321 137.638 198.361 138.641 198.232 139.631Z" fill="#263238"/>
<path d="M200.918 144.567C200.347 144.671 199.76 144.671 199.189 144.567C198.609 144.546 198.038 144.419 197.508 144.193C198.081 144.191 198.654 144.239 199.218 144.337C199.791 144.36 200.361 144.437 200.918 144.567Z" fill="#263238"/>
<path d="M205.537 142.291C205.341 143.314 204.981 144.304 204.471 145.225C204.527 144.709 204.666 144.204 204.885 143.729C205.021 143.22 205.241 142.734 205.537 142.291Z" fill="#263238"/>
<path d="M208.867 138.306C207.876 138.207 206.91 137.953 206.009 137.553C206.998 137.657 207.963 137.911 208.867 138.306Z" fill="#263238"/>
<path d="M211.543 139.815C211.26 140.208 210.911 140.553 210.51 140.839C210.161 141.181 209.758 141.468 209.314 141.691C209.595 141.295 209.944 140.948 210.348 140.663C210.696 140.322 211.1 140.036 211.543 139.815Z" fill="#263238"/>
<path d="M212.615 136.087C212.351 135.641 212.189 135.149 212.139 134.64C212.002 134.142 211.979 133.623 212.072 133.116C212.224 133.6 212.327 134.097 212.381 134.599C212.508 135.087 212.586 135.585 212.615 136.087Z" fill="#263238"/>
<path d="M217.711 135.23C216.731 136.156 215.74 137.072 214.739 137.976C215.495 136.858 216.512 135.919 217.711 135.23Z" fill="#263238"/>
<path d="M218.215 133.504C217.669 133.431 217.137 133.279 216.639 133.053C216.111 132.906 215.609 132.682 215.153 132.39C215.698 132.465 216.228 132.617 216.725 132.841C217.253 132.991 217.756 133.214 218.215 133.504Z" fill="#263238"/>
<path d="M217.73 131.651C217.487 131.276 217.318 130.864 217.229 130.433C217.063 130.023 216.974 129.588 216.968 129.148C217.201 129.524 217.363 129.936 217.444 130.366C217.616 130.775 217.712 131.21 217.73 131.651Z" fill="#263238"/>
<path d="M191.069 144.639C191.012 144.68 190.593 144.234 190.174 143.648C189.872 143.315 189.636 142.933 189.478 142.521C189.837 142.798 190.14 143.134 190.374 143.512C190.671 143.848 190.906 144.229 191.069 144.639Z" fill="#263238"/>
<path d="M227.378 167.352C227.358 167.289 227.346 167.224 227.34 167.159C227.321 167.023 227.293 166.834 227.255 166.591C227.188 166.081 227.083 165.346 226.955 164.408C226.683 162.515 226.297 159.769 225.721 156.393C225.145 153.016 224.378 149.008 223.288 144.608C223.176 144.056 222.985 143.52 222.721 143.017C222.421 142.52 222.035 142.074 221.578 141.7C220.608 140.94 219.367 140.559 218.111 140.636C217.47 140.67 216.843 140.831 216.272 141.11C215.699 141.416 215.153 141.766 214.639 142.155L211.362 144.459C206.952 147.592 202.823 150.663 199.137 153.543C195.451 156.424 192.236 159.12 189.545 161.406C188.183 162.515 186.731 163.403 185.259 163.547C184.584 163.62 183.901 163.541 183.264 163.317C182.734 163.128 182.235 162.869 181.782 162.547C181.163 162.101 180.589 161.601 180.068 161.054L179.663 160.631C179.614 160.584 179.569 160.532 179.53 160.477C179.585 160.517 179.634 160.562 179.677 160.612L180.101 161.023C180.637 161.551 181.219 162.037 181.84 162.474C182.29 162.782 182.781 163.03 183.302 163.214C183.924 163.423 184.589 163.493 185.245 163.417C186.674 163.268 188.102 162.389 189.436 161.28C192.108 158.985 195.313 156.257 198.999 153.377C202.685 150.496 206.805 147.403 211.219 144.27L214.496 141.966C215.022 141.569 215.581 141.214 216.168 140.902C216.768 140.609 217.427 140.44 218.101 140.406C219.419 140.327 220.72 140.729 221.735 141.529C222.216 141.92 222.621 142.389 222.93 142.913C223.203 143.434 223.4 143.987 223.516 144.558C224.597 148.972 225.34 152.989 225.897 156.366C226.455 159.742 226.812 162.497 227.055 164.395C227.164 165.337 227.25 166.072 227.312 166.586C227.312 166.829 227.355 167.037 227.369 167.159C227.379 167.223 227.382 167.288 227.378 167.352Z" fill="#263238"/>
<path d="M232.941 167.1C232.787 167.145 232.627 167.169 232.465 167.172C232.156 167.203 231.708 167.24 231.155 167.276C230.046 167.348 228.517 167.424 226.826 167.492L222.497 167.668L221.183 167.713C221.025 167.731 220.865 167.731 220.707 167.713C220.861 167.665 221.021 167.638 221.183 167.632C221.492 167.596 221.94 167.555 222.492 167.51C223.602 167.424 225.131 167.339 226.822 167.267L231.155 167.118L232.47 167.091C232.627 167.075 232.785 167.078 232.941 167.1Z" fill="#263238"/>
<path d="M220.735 145.036C219.651 146.707 218.238 148.165 216.573 149.332C216.525 149.278 217.525 148.399 218.687 147.213C219.849 146.028 220.664 144.995 220.735 145.036Z" fill="#263238"/>
<path d="M221.197 146.407C220.554 146.871 219.876 147.288 219.168 147.656C218.502 148.093 217.801 148.482 217.072 148.819C217.662 148.289 218.321 147.835 219.034 147.466C219.704 147.026 220.431 146.67 221.197 146.407Z" fill="#263238"/>
<path d="M261.321 168.263C261.224 168.273 261.127 168.273 261.03 168.263L260.192 168.218L257.144 167.943L247.1 166.951C243.176 166.563 239.632 166.13 237.056 166.008C235.77 165.945 234.722 165.95 234.003 165.977L233.174 166.008C233.076 166.02 232.977 166.02 232.879 166.008C232.975 165.986 233.072 165.971 233.17 165.963C233.355 165.936 233.646 165.914 233.998 165.882C235.019 165.819 236.043 165.805 237.065 165.842C239.656 165.923 243.204 166.329 247.124 166.716L257.168 167.767L260.211 168.114L261.035 168.218C261.132 168.222 261.228 168.237 261.321 168.263Z" fill="#455A64"/>
<path d="M260.716 173.303C260.649 173.303 260.863 171.049 261.192 168.249C261.52 165.45 261.854 163.218 261.92 163.227C261.987 163.236 261.773 165.481 261.444 168.276C261.116 171.072 260.782 173.308 260.716 173.303Z" fill="#455A64"/>
</svg>
